<svg xmlns="http://www.w3.org/2000/svg" width="43" height="32" viewBox="0 0 43 32">
    <g fill="none" fill-rule="nonzero">
        <path fill="#F9E9E8" d="M27.233 7.8h-.366c1.833 1.467 3.116 3.85 3.116 6.417 0 4.4-3.483 8.066-7.883 8.25 1.467 1.1 3.117 1.833 5.133 1.833a8.216 8.216 0 0 0 8.25-8.25c0-4.583-3.85-8.25-8.25-8.25z"/>
        <g fill="#FC574D">
            <path d="M1.567 2.3h25.666c.55 0 .917-.367.917-.917s-.367-.916-.917-.916H1.567c-.55 0-.917.366-.917.916s.367.917.917.917zM27.233 29.8H1.567c-.55 0-.917.367-.917.917s.367.916.917.916h25.666c.55 0 .917-.366.917-.916s-.55-.917-.917-.917zM1.567 9.633H14.4c.55 0 .917-.366.917-.916S14.95 7.8 14.4 7.8H1.567c-.55 0-.917.367-.917.917s.367.916.917.916zM1.567 16.967h11c.55 0 .916-.367.916-.917s-.366-.917-.916-.917h-11c-.55 0-.917.367-.917.917s.367.917.917.917zM1.567 24.3H14.4c.55 0 .917-.367.917-.917s-.367-.916-.917-.916H1.567c-.55 0-.917.366-.917.916s.367.917.917.917zM42.45 30.167l-7.517-7.517c1.467-1.833 2.384-4.033 2.384-6.417 0-5.5-4.584-10.083-10.084-10.083S17.15 10.733 17.15 16.233s4.583 10.084 10.083 10.084c2.384 0 4.767-.917 6.417-2.384l7.517 7.517a.886.886 0 0 0 1.283 0 .886.886 0 0 0 0-1.283zM27.233 24.3a8.216 8.216 0 0 1-8.25-8.25 8.216 8.216 0 0 1 8.25-8.25 8.216 8.216 0 0 1 8.25 8.25c0 4.583-3.85 8.25-8.25 8.25z"/>
        </g>
    </g>
</svg>
