<svg xmlns="http://www.w3.org/2000/svg" width="33" height="36" viewBox="0 0 33 36">
    <g fill="none" fill-rule="nonzero">
        <path fill="#F9E9E8" d="M30.063 24.592c0-.154-.155-.309-.309-.463l-1.85-1.079c-1.079-.617-1.85-1.542-2.158-2.775L22.97 9.945C21.738 5.168 17.267 1.93 12.333 1.93c-.925 0-1.85.154-2.775.308-1.541.463-2.775 1.08-4.008 2.005.463-.154.77-.309 1.233-.463.771-.154 1.696-.308 2.467-.308 4.317 0 8.017 2.775 9.096 6.937l2.775 10.33c.462 1.541 1.387 2.929 2.929 3.7L3.854 29.832l-.925 1.542c-.154.154-.154.308 0 .617l.154.616 27.134-7.245-.154-.771z"/>
        <g fill="#FC574D">
            <path d="M31.604 24.13c-.154-.617-.616-1.08-1.079-1.388l-1.85-1.08c-.77-.462-1.233-1.079-1.387-1.85L24.512 9.483C22.971 3.933 18.038.387 12.489.387c-1.08 0-2.159.155-3.238.463C2.62 2.546-1.387 9.33.463 15.958l2.774 10.33c.155.77.155 1.695-.308 2.312L1.85 30.45c-.308.463-.463 1.233-.308 1.696l.616 2.004 30.217-8.017-.77-2.004zM3.084 32.3l-.155-.617v-.616l1.08-1.85c.616-1.08.77-2.313.462-3.546L1.696 15.34c-.771-2.774-.308-5.704 1.079-8.17 1.387-2.467 3.854-4.317 6.63-5.088.924-.308 1.85-.308 2.774-.308 4.934 0 9.25 3.238 10.638 8.017l2.775 10.329c.308 1.233 1.079 2.158 2.158 2.775l1.85 1.079c.154.154.308.308.308.462l.154.617L3.084 32.3zM10.637 33.38c.771 1.387 2.467 2.312 4.317 2.312 2.775 0 4.933-2.005 4.933-4.625l-9.25 2.312z"/>
        </g>
    </g>
</svg>
