<svg xmlns="http://www.w3.org/2000/svg" width="35" height="35" viewBox="0 0 35 35">
    <g fill="none" fill-rule="nonzero">
        <path fill="#F9E9E8" d="M30.35 1.7h-1.5v24c0 1.65-1.35 3-3 3h-24v1.5c0 1.65 1.35 3 3 3h25.5c1.65 0 3-1.35 3-3V4.7c0-1.65-1.35-3-3-3z"/>
        <g fill="#FC574D">
            <path d="M25.1 16.7h-6.75V9.95c0-.45-.3-.75-.75-.75s-.75.3-.75.75v6.75H10.1c-.45 0-.75.3-.75.75s.3.75.75.75h6.75v6.75c0 .45.3.75.75.75s.75-.3.75-.75V18.2h6.75c.45 0 .75-.3.75-.75 0-.3-.45-.75-.75-.75z"/>
            <path d="M30.2.2H4.85C2.3.2.2 2.3.2 4.85V30.2c0 2.55 2.1 4.65 4.65 4.65H30.2c2.55 0 4.65-2.1 4.65-4.65V4.85C34.85 2.3 32.75.2 30.2.2zm3.15 30c0 1.65-1.35 3-3 3H4.85c-1.65 0-3-1.35-3-3V4.7c0-1.65 1.35-3 3-3h25.5c1.65 0 3 1.35 3 3v25.5z"/>
        </g>
    </g>
</svg>
