<svg xmlns="http://www.w3.org/2000/svg" width="33" height="33" viewBox="0 0 33 33">
    <g fill="none" fill-rule="nonzero">
        <path fill="#F9E9E8" d="M28.946 28.815h-11.77l2.224-5.753c.262-.524.654-.785 1.177-.785h3.138c.654 0 1.308-.523 1.308-1.177L26.2 3.97h2.615v24.845h.131z"/>
        <path fill="#F9E9E8" d="M19.792 1.354l-.523 3.923h8.37v18.308h-4.97c-.915 0-1.569.653-1.569 1.569v2.354h-4.708l-.523 3.923h15.693V1.354h-11.77z"/>
        <g fill="#FC574D">
            <path d="M30.908.046H2.138C1.092.046.177.962.177 2.008v28.769c0 1.046.915 1.961 1.961 1.961h28.77c1.046 0 1.961-.915 1.961-1.961V2.007c0-1.045-.915-1.96-1.961-1.96zm.654 30.73c0 .393-.262.655-.654.655H2.138c-.392 0-.653-.262-.653-.654V2.007c0-.392.261-.653.653-.653h28.77c.392 0 .654.261.654.654v28.769z"/>
            <path d="M27.638 3.97H5.408c-.785 0-1.308.522-1.308 1.307v18.308c0 .784.523 1.307 1.308 1.307h4.969c.13 0 .261.131.261.262v2.354c0 .784.524 1.307 1.308 1.307H21.1c.785 0 1.308-.523 1.308-1.307v-2.354c0-.13.13-.262.261-.262h4.97c.784 0 1.307-.523 1.307-1.307V5.277c0-.654-.654-1.308-1.308-1.308zm0 19.615H22.67c-.915 0-1.569.653-1.569 1.569v2.354h-9.154v-2.354c0-.916-.654-1.57-1.57-1.57H5.409V5.278h22.23v18.308z"/>
            <path d="M16 23.454c.13.13.262.13.523.13.262 0 .392 0 .523-.13l5.23-5.23a.632.632 0 0 0 0-.916.632.632 0 0 0-.914 0l-4.054 4.054V8.546c0-.392-.262-.654-.654-.654S16 8.154 16 8.546v12.816l-4.054-4.054a.632.632 0 0 0-.915 0 .632.632 0 0 0 0 .915L16 23.453z"/>
        </g>
    </g>
</svg>
