<svg xmlns="http://www.w3.org/2000/svg" width="34" height="34" viewBox="0 0 34 34">
    <g fill="none" fill-rule="nonzero">
        <path fill="#F9E9E8" d="M28.4 30.64l2.38-2.38c.28-.28.28-.7 0-.98l-4.06-4.06c-.14-.14-.28-.28-.56-.28s-.42.14-.56.28l-1.68 1.68c-.56.56-1.26.84-1.96.84-.56 0-.98-.14-1.54-.42-.7-.42-1.54-.98-2.52-1.68.28 2.38 1.26 4.9 2.24 7 .28.14.56.42.84.56.98.7 2.1.98 3.22.98 1.68.14 3.08-.42 4.2-1.54z"/>
        <g fill="#FC574D">
            <path d="M27.7 22.24c-.42-.42-.98-.56-1.54-.56s-1.12.14-1.54.56l-1.68 1.68c-.28.28-.7.42-.98.42s-.56 0-.7-.14c-1.54-.98-4.48-2.8-6.58-4.9-2.1-2.1-4.06-5.04-4.9-6.58-.28-.56-.28-1.26.14-1.68l1.68-1.68c.84-.84.84-2.24 0-3.08L7.54 2.22c-.42-.42-.98-.56-1.54-.56s-1.12.14-1.54.56L2.08 4.6c-2.38 2.38-2.8 6.16-.84 9.1 2.38 3.5 5.74 8.12 8.26 10.64 2.52 2.52 7.14 5.88 10.64 8.26 1.26.84 2.66 1.26 4.06 1.26 1.82 0 3.64-.7 5.04-2.1l2.38-2.38c.84-.84.84-2.24 0-3.08l-3.92-4.06zm3.08 6.02l-2.38 2.38a5.607 5.607 0 0 1-4.06 1.68c-1.12 0-2.24-.28-3.22-.98-3.36-2.38-7.98-5.6-10.5-8.12-2.38-2.38-5.74-7-8.12-10.5-1.54-2.24-1.26-5.32.7-7.28l2.38-2.38c.14-.14.28-.28.56-.28s.42.14.56.28l4.06 4.06c.28.28.28.7 0 .98L9.08 9.78c-.98.98-1.12 2.38-.42 3.5.98 1.54 2.94 4.62 5.18 6.86 2.24 2.24 5.18 4.2 6.86 5.18.42.28.98.42 1.54.42.7 0 1.4-.28 1.96-.84l1.68-1.68c.14-.14.28-.28.56-.28s.42.14.56.28l4.06 4.06c0 .28 0 .7-.28.98z"/>
            <path d="M33.72.82V.68s0-.14-.14-.14V.4s-.14 0-.14-.14h-.14-8.68c-.42 0-.7.28-.7.7 0 .42.28.7.7.7h6.58l-14 12.74c-.28.28-.28.7 0 .98.14.14.28.28.56.28.14 0 .28 0 .42-.14L32.46 2.64V9.5c0 .42.28.7.7.7.42 0 .7-.28.7-.7L33.72.82z"/>
        </g>
    </g>
</svg>
