<svg xmlns="http://www.w3.org/2000/svg" width="36" height="35" viewBox="0 0 36 35">
    <g fill="#FC574D" fill-rule="nonzero">
        <path d="M31.56 19.146h2.865V33.47H31.56zM1.48 22.01h20.053v7.162H4.345a2.873 2.873 0 0 1-2.865-2.864V22.01zM25.83 17.714h2.865V4.822H4.345v14.324h20.053c0-.716.573-1.432 1.432-1.432z" opacity=".1"/>
        <path d="M22.25 33.47H20.1v-4.298h.717c.43 0 .716-.286.716-.716s-.286-.716-.716-.716H2.197c-.43 0-.717-.286-.717-.716v-3.581h19.337c.43 0 .716-.287.716-.716 0-.43-.286-.716-.716-.716H1.48V2.674c0-.43.287-.716.716-.716h28.648c.43 0 .716.286.716.716v11.459c0 .43.286.716.716.716s.716-.287.716-.716V2.673c0-1.145-1.003-2.148-2.148-2.148H2.196C1.05.525.048 1.528.048 2.674v24.35c0 1.146 1.002 2.148 2.148 2.148H12.94v4.297H10.79c-.43 0-.716.287-.716.717s.287.716.716.716h11.46c.429 0 .716-.287.716-.716 0-.43-.43-.717-.717-.717zm-3.582 0h-4.297v-4.298h4.297v4.297z"/>
        <path d="M34.424 17.714H25.83c-.86 0-1.432.572-1.432 1.432v14.323c0 .86.573 1.433 1.432 1.433h8.594c.86 0 1.433-.573 1.433-1.433V19.146c0-.716-.716-1.432-1.433-1.432zm0 15.755H25.83V19.146h8.594v14.323z"/>
        <path d="M29.411 32.037h1.433c.43 0 .716-.286.716-.716s-.287-.716-.716-.716H29.41c-.43 0-.716.286-.716.716s.286.716.716.716z"/>
    </g>
</svg>
