<svg xmlns="http://www.w3.org/2000/svg" width="36" height="36" viewBox="0 0 36 36">
    <g fill="#FC574D" fill-rule="nonzero">
        <path d="M28.671 16.692c-.563-4.087-3.382-7.47-7.47-8.738l.847-5.637c6.764 1.691 11.556 7.328 12.12 14.234l-5.497.141zM18.242 34.309c-8.879 0-16.207-7.329-16.207-16.208 0-8.456 6.483-15.361 14.798-16.207v5.637c-5.215.705-9.16 5.074-9.16 10.43 0 5.778 4.791 10.57 10.57 10.57 1.69 0 3.382-.423 4.932-1.128l3.241 4.65c-2.536 1.551-5.355 2.256-8.174 2.256z" opacity=".1"/>
        <path d="M24.584 24.584l5.92 5.92c2.536-2.537 4.369-6.06 4.932-9.866l-8.315-1.268a7.699 7.699 0 0 1-2.537 5.214zm9.302-2.677a15.633 15.633 0 0 1-3.382 6.623l-3.947-3.946c.846-.986 1.41-2.255 1.692-3.382l5.637.705zM20.92.766l-1.41 8.316c4.37.704 7.752 4.51 7.752 9.02h8.456C35.86 9.362 29.376 2.175 20.92.765zm7.751 15.926c-.563-4.087-3.382-7.47-7.47-8.738l.847-5.637c6.764 1.691 11.556 7.328 12.12 14.234l-5.497.141z"/>
        <path d="M18.242 27.262a9.142 9.142 0 0 1-9.16-9.16 9.142 9.142 0 0 1 9.16-9.161V.485C8.518.485.626 8.377.626 18.1c0 9.725 7.892 17.617 17.616 17.617 3.806 0 7.329-1.268 10.148-3.241l-4.933-6.906a8.856 8.856 0 0 1-5.215 1.691zm0 7.047c-8.879 0-16.207-7.329-16.207-16.208 0-8.456 6.483-15.361 14.798-16.207v5.637c-5.215.705-9.16 5.074-9.16 10.43 0 5.778 4.791 10.57 10.57 10.57 1.69 0 3.382-.423 4.932-1.128l3.241 4.65c-2.536 1.551-5.355 2.256-8.174 2.256z"/>
    </g>
</svg>
