<svg xmlns="http://www.w3.org/2000/svg" width="101" height="101" viewBox="0 0 101 101">
    <g fill="#129F9F" fill-rule="evenodd" opacity=".66">
        <circle cx="3" cy="3" r="3"/>
        <circle cx="22" cy="3" r="3"/>
        <circle cx="41" cy="3" r="3"/>
        <circle cx="79" cy="3" r="3"/>
        <circle cx="60" cy="3" r="3"/>
        <circle cx="98" cy="3" r="3"/>
        <circle cx="3" cy="22" r="3"/>
        <circle cx="22" cy="22" r="3"/>
        <circle cx="41" cy="22" r="3"/>
        <circle cx="79" cy="22" r="3"/>
        <circle cx="60" cy="22" r="3"/>
        <circle cx="98" cy="22" r="3"/>
        <circle cx="3" cy="41" r="3"/>
        <circle cx="22" cy="41" r="3"/>
        <circle cx="41" cy="41" r="3"/>
        <circle cx="79" cy="41" r="3"/>
        <circle cx="60" cy="41" r="3"/>
        <circle cx="98" cy="41" r="3"/>
        <circle cx="3" cy="60" r="3"/>
        <circle cx="22" cy="60" r="3"/>
        <circle cx="41" cy="60" r="3"/>
        <circle cx="79" cy="60" r="3"/>
        <circle cx="60" cy="60" r="3"/>
        <circle cx="98" cy="60" r="3"/>
        <circle cx="3" cy="79" r="3"/>
        <circle cx="22" cy="79" r="3"/>
        <circle cx="41" cy="79" r="3"/>
        <circle cx="79" cy="79" r="3"/>
        <circle cx="60" cy="79" r="3"/>
        <circle cx="98" cy="79" r="3"/>
        <circle cx="3" cy="98" r="3"/>
        <circle cx="22" cy="98" r="3"/>
        <circle cx="41" cy="98" r="3"/>
        <circle cx="79" cy="98" r="3"/>
        <circle cx="60" cy="98" r="3"/>
        <circle cx="98" cy="98" r="3"/>
    </g>
</svg>
