<svg width="0" height="0" class="hidden">
    <symbol xmlns="http://www.w3.org/2000/svg" width="24" height="17" viewBox="0 0 24 17" id="name">
        <path fill="#353638" fill-rule="nonzero" d="M9.3 9.9c1.6-.8 2.7-2.5 2.7-4.4 0-2.8-2.2-5-5-5s-5 2.2-5 5c0 1.9 1.1 3.6 2.7 4.4C2 10.9 0 13.5 0 16.5c0 .3.2.5.5.5s.5-.2.5-.5c0-3.3 2.7-6 6-6s6 2.7 6 6c0 .3.2.5.5.5s.5-.2.5-.5c0-3-2-5.6-4.7-6.6zM3 5.5c0-2.2 1.8-4 4-4s4 1.8 4 4-1.8 4-4 4-4-1.8-4-4zm16.6 1.9c1.1-.7 1.9-1.9 1.9-3.4 0-2.2-1.8-4-4-4s-4 1.8-4 4c0 1.4.7 2.7 1.9 3.4-1.3.5-2.5 1.3-3.2 2.5.3.2.5.5.7.7 1-1.5 2.7-2.6 4.6-2.6 3 0 5.5 2.5 5.5 5.5 0 .3.2.5.5.5s.5-.2.5-.5c0-2.8-1.9-5.2-4.4-6.1zM17.4 7c-1.7 0-3-1.3-3-3s1.3-3 3-3 3 1.3 3 3-1.3 3-3 3z"/>
    </symbol>

    <symbol xmlns="http://www.w3.org/2000/svg" width="21" height="16" viewBox="0 0 21 16" id="email">
        <path fill="#353638" fill-rule="nonzero" d="M19.741 0H1.261C.587 0 0 .588 0 1.26v13.441c0 .672.588 1.26 1.26 1.26h18.481c.672 0 1.26-.588 1.26-1.26V1.261C21.087.587 20.498 0 19.742 0zm.504 14.701c0 .252-.168.42-.42.42H1.345c-.253 0-.42-.168-.42-.42V3.864l8.82 5.209c.252.168.588.252.84.252s.588-.084.84-.252l8.82-5.209v10.837zm0-11.76l-9.24 5.46c-.168.084-.252.084-.42.084-.168 0-.336 0-.42-.084L.925 2.94V1.343c0-.252.167-.42.42-.42h18.48c.252 0 .42.168.42.42V2.94z"/>
    </symbol>

    <symbol xmlns="http://www.w3.org/2000/svg" width="22" height="21" viewBox="0 0 22 21" id="phone">
        <path fill="#353638" fill-rule="nonzero" d="M20.714 16.07l-2.648-2.648c-.274-.274-.639-.365-1.004-.365s-.73.09-1.004.365l-1.096 1.095a.986.986 0 0 1-.64.274c-.182 0-.364 0-.456-.182-1.004-.64-2.921-1.826-4.291-3.196-1.37-1.37-2.648-3.287-3.196-4.291-.182-.365-.182-.822.092-1.096L7.566 4.93c.548-.547.548-1.46 0-1.917L4.918.365C4.645.091 4.28 0 3.914 0s-.73.091-1.004.365L1.358 1.917C-.195 3.47-.468 5.935.81 7.852c1.552 2.283 3.743 5.296 5.387 6.94 1.643 1.643 4.656 3.834 6.939 5.386a4.757 4.757 0 0 0 2.648.822 4.634 4.634 0 0 0 3.287-1.37l1.552-1.552c.639-.639.639-1.46.091-2.008zm-.639 1.278L18.523 18.9a3.657 3.657 0 0 1-2.648 1.096c-.73 0-1.46-.183-2.1-.64-2.191-1.552-5.204-3.652-6.848-5.295-1.552-1.552-3.743-4.565-5.295-6.848-1.005-1.46-.822-3.47.456-4.748L3.64.913c.092-.091.183-.183.365-.183.183 0 .274.092.366.183l2.647 2.648a.441.441 0 0 1 0 .639L5.923 5.296c-.64.639-.73 1.552-.274 2.282.639 1.005 1.917 3.013 3.378 4.474 1.461 1.461 3.378 2.74 4.474 3.378.274.183.64.274 1.004.274.457 0 .913-.182 1.279-.547l1.095-1.096c.092-.091.183-.183.366-.183.182 0 .273.092.365.183l2.648 2.648c0 .182 0 .456-.183.639z"/>
    </symbol>
    <symbol xmlns="http://www.w3.org/2000/svg" width="21" height="21" viewBox="0 0 21 21" id="company">
        <path fill="#353638" fill-rule="nonzero" d="M20.664 20.244h-1.26v-9.576c0-.336-.168-.588-.42-.756l-6.3-3.528V1.26c0-.672-.588-1.26-1.26-1.26H7.98c-.588 0-1.092.42-1.26 1.008L2.688 20.16H.42c-.252 0-.42.168-.42.42s.168.42.42.42h20.16c.252 0 .42-.168.42-.42s-.084-.336-.336-.336zM7.644 1.26c0-.168.252-.336.42-.336h1.344v10.08h-3.78L7.644 1.26zM5.46 11.844h3.948v2.52H4.956l.504-2.52zm-.756 3.36h4.62v2.52H4.2l.504-2.52zm7.224-9.24v14.28H3.696l.336-1.68h5.796c.252 0 .42-.168.42-.42V.924h1.26c.252 0 .42.168.42.42v4.62zm6.72 14.28h-5.88V7.392l5.88 3.276v9.576zm-4.2-7.98c0-.252.168-.42.42-.42h1.68c.252 0 .42.168.42.42s-.168.42-.42.42h-1.68c-.252 0-.42-.168-.42-.42zm0 2.52c0-.252.168-.42.42-.42h1.68c.252 0 .42.168.42.42s-.168.42-.42.42h-1.68c-.252 0-.42-.168-.42-.42zm0 2.52c0-.252.168-.42.42-.42h1.68c.252 0 .42.168.42.42s-.168.42-.42.42h-1.68c-.252 0-.42-.168-.42-.42z"/>
    </symbol>
</svg>
