<svg xmlns="http://www.w3.org/2000/svg" width="35" height="42" viewBox="0 0 35 42">
    <g fill="none" fill-rule="nonzero">
        <g fill="#F9E9E8">
            <path d="M32.465 40.691h-3.739V30.41l3.74-3.74zM6.291 40.691H2.365V24.8l3.926-3.74z"/>
        </g>
        <path fill="#F9E9E8" d="M19.378 40.691H15.64V15.452l3.74-3.739z"/>
        <g fill="#FC574D">
            <path d="M31.53 22.93h-1.87c-1.495 0-2.803 1.31-2.803 2.805v13.087c0 1.495 1.308 2.804 2.804 2.804h1.87c1.495 0 2.804-1.309 2.804-2.804V25.735c0-1.496-1.309-2.805-2.805-2.805zm.935 15.892c0 .56-.374.935-.935.935h-1.87c-.56 0-.934-.374-.934-.935V25.735c0-.561.374-.935.935-.935h1.87c.56 0 .934.374.934.935v13.087zM18.443.496h-1.87c-1.495 0-2.803 1.308-2.803 2.804v35.522c0 1.495 1.308 2.804 2.804 2.804h1.87c1.495 0 2.804-1.309 2.804-2.804V3.3c0-1.496-1.309-2.804-2.805-2.804zm.935 38.326c0 .56-.374.935-.935.935h-1.87c-.56 0-.934-.374-.934-.935V3.3c0-.56.374-.935.935-.935h1.87c.56 0 .934.374.934.935v35.522zM5.357 15.452h-1.87c-1.496 0-2.804 1.309-2.804 2.805v20.565c0 1.495 1.308 2.804 2.804 2.804h1.87c1.495 0 2.804-1.309 2.804-2.804V18.257c0-1.496-1.309-2.805-2.804-2.805zm.934 23.37c0 .56-.374.935-.934.935h-1.87c-.56 0-.935-.374-.935-.935V18.257c0-.561.374-.935.935-.935h1.87c.56 0 .934.374.934.935v20.565z"/>
        </g>
    </g>
</svg>
