<svg xmlns="http://www.w3.org/2000/svg" width="36" height="37" viewBox="0 0 36 37">
    <g fill="#FC574D" fill-rule="nonzero">
        <path d="M10.33 30.157c0 .442-.296.736-.738.736H5.165c-.443 0-.738-.294-.738-.736v-6.62c0-.882-.59-1.47-1.476-1.47h-.738c-.442 0-.737-.295-.737-.736v-3.678c0-3.236 2.656-5.884 5.902-5.884 1.918 0 3.69 1.03 4.87 2.5-1.18 1.325-1.919 2.943-1.919 4.855V30.157zM33.94 21.33c0 .442-.296.736-.738.736h-.738c-.885 0-1.476.589-1.476 1.471v6.62c0 .442-.295.736-.738.736h-4.426c-.443 0-.738-.294-.738-.736V19.124c0-1.912-.738-3.53-1.919-4.854a5.938 5.938 0 0 1 4.87-2.501c3.246 0 5.903 2.648 5.903 5.884v3.678z" opacity=".1"/>
        <path d="M17.708 10.298c2.508 0 4.427-1.913 4.427-4.414 0-2.5-1.919-4.413-4.427-4.413-2.509 0-4.427 1.913-4.427 4.413 0 2.501 1.918 4.414 4.427 4.414zm0-7.356a2.955 2.955 0 0 1 2.95 2.942 2.955 2.955 0 0 1-2.95 2.943 2.955 2.955 0 0 1-2.952-2.943 2.955 2.955 0 0 1 2.952-2.942zM28.037 8.827c2.509 0 4.427-1.913 4.427-4.414 0-2.5-1.918-4.413-4.427-4.413-2.509 0-4.427 1.912-4.427 4.413 0 2.501 1.918 4.414 4.427 4.414zm0-7.356a2.955 2.955 0 0 1 2.951 2.942 2.955 2.955 0 0 1-2.951 2.942 2.955 2.955 0 0 1-2.951-2.942 2.955 2.955 0 0 1 2.951-2.942zM7.378 8.827c2.509 0 4.427-1.913 4.427-4.414C11.805 1.913 9.887 0 7.378 0 4.87 0 2.951 1.912 2.951 4.413c0 2.501 1.919 4.414 4.427 4.414zm0-7.356a2.955 2.955 0 0 1 2.951 2.942 2.955 2.955 0 0 1-2.95 2.942 2.955 2.955 0 0 1-2.952-2.942 2.955 2.955 0 0 1 2.951-2.942zM28.037 10.298c-2.361 0-4.574 1.177-5.902 2.942a7.602 7.602 0 0 0-4.427-1.471 7.602 7.602 0 0 0-4.427 1.47c-1.328-1.764-3.542-2.941-5.903-2.941C3.246 10.298 0 13.534 0 17.653v3.678c0 1.177 1.033 2.206 2.213 2.206h.738v6.62c0 1.177 1.033 2.207 2.214 2.207h4.427c1.18 0 2.213-1.03 2.213-2.207v-3.824c.295.147.443.147.738.147h.738v8.09c0 1.178 1.033 2.207 2.213 2.207h4.427c1.18 0 2.214-1.03 2.214-2.206V26.48h.737c.295 0 .443 0 .738-.147v3.824c0 1.177 1.033 2.207 2.214 2.207h4.426c1.181 0 2.214-1.03 2.214-2.207v-6.62h.738c1.18 0 2.213-1.03 2.213-2.206v-3.678c0-4.119-3.246-7.355-7.378-7.355zm-17.708 19.86c0 .44-.295.735-.737.735H5.165c-.443 0-.738-.294-.738-.736v-6.62c0-.882-.59-1.47-1.476-1.47h-.738c-.442 0-.737-.295-.737-.736v-3.678c0-3.236 2.656-5.884 5.902-5.884 1.918 0 3.69 1.03 4.87 2.5-1.18 1.325-1.919 2.943-1.919 4.855V30.157zm12.543-5.15h-.737c-.886 0-1.476.589-1.476 1.472v8.09c0 .442-.295.736-.738.736h-4.427c-.443 0-.738-.294-.738-.735V26.48c0-.883-.59-1.471-1.475-1.471h-.738c-.443 0-.738-.295-.738-.736v-5.149c0-3.236 2.656-5.884 5.903-5.884 3.246 0 5.902 2.648 5.902 5.884v5.149c0 .441-.295.736-.738.736zm11.068-3.677c0 .441-.296.735-.738.735h-.738c-.885 0-1.476.589-1.476 1.471v6.62c0 .442-.295.736-.738.736h-4.426c-.443 0-.738-.294-.738-.736V19.124c0-1.912-.738-3.53-1.919-4.854a5.938 5.938 0 0 1 4.87-2.501c3.246 0 5.903 2.648 5.903 5.884v3.678z"/>
    </g>
</svg>
