<svg xmlns="http://www.w3.org/2000/svg" width="43" height="36" viewBox="0 0 43 36">
    <g fill="none" fill-rule="nonzero">
        <path fill="#F9E9E8" d="M35.755 2.021V23c0 .503-.335.84-.839.84H3.867v2.517c0 .503.336.839.84.839h33.566c.503 0 .839-.336.839-.84V2.022h-3.357z"/>
        <g fill="#FC574D">
            <path d="M41.63.343H1.35c-.504 0-.84.335-.84.839 0 .503.336.839.84.839h.839v24.336c0 1.342 1.175 2.517 2.517 2.517h12.42l-3.021 5.539c-.168.335 0 .839.336 1.174.167 0 .335.168.335.168.336 0 .504-.168.672-.503l3.524-6.21h5.035l3.524 6.21c.168.335.504.503.672.503.168 0 .335 0 .335-.168.336-.167.504-.67.336-1.174l-3.02-5.539h12.419c1.342 0 2.517-1.175 2.517-2.517V2.02h.84c.503 0 .839-.336.839-.84 0-.335-.504-.838-.84-.838zm-2.518 26.014c0 .503-.336.839-.84.839H4.707c-.503 0-.839-.336-.839-.84V2.022h35.245v24.336z"/>
            <path d="M8.902 21.322c.168 0 .504 0 .671-.168l7.72-7.72 6.043 6.042a.811.811 0 0 0 1.174 0l7.72-7.72v3.02c0 .504.336.84.84.84.503 0 .84-.336.84-.84V9.741c0-.503-.337-.839-.84-.839h-5.035c-.504 0-.84.336-.84.84 0 .503.336.838.84.838h3.02l-7.216 7.217-6.042-6.042a.811.811 0 0 0-1.175 0l-8.391 8.392a.811.811 0 0 0 0 1.175h.671z"/>
        </g>
    </g>
</svg>
