<svg xmlns="http://www.w3.org/2000/svg" width="24" height="24" viewBox="0 0 24 24">
    <path fill="#FC3B30" fill-rule="nonzero" d="M22.587 18.625c.6.6.6 1.6 0 2.1l-1.7 1.7c-1.7 1.7-4.4 2-6.5.6-2.5-1.7-5.8-4.1-7.6-5.9-1.8-1.8-4.2-5.1-5.9-7.6-1.4-2-1.1-4.7.6-6.5l1.7-1.7c.6-.6 1.6-.6 2.1 0l2.9 2.9c.6.6.6 1.6 0 2.1l-1.2 1.2c-.3.3-.4.8-.1 1.2.7 1.1 2 3.2 3.5 4.7s3.6 2.9 4.7 3.5c.4.2.9.2 1.2-.1l1.2-1.2c.6-.6 1.6-.6 2.1 0l3 3zm-3.8-7.1c.1.1.2.1.4.1s.3 0 .4-.1c.9-.9 1.5-2.2 1.5-3.5 0-1.3-.5-2.6-1.5-3.5-1-.9-2.2-1.5-3.5-1.5-1.3 0-2.6.5-3.5 1.5-.2.2-.2.5 0 .7.2.2.5.2.7 0 .8-.8 1.8-1.2 2.8-1.2 1 0 2.1.4 2.8 1.2.8.8 1.2 1.8 1.2 2.8 0 1-.4 2.1-1.2 2.8-.3.2-.3.5-.1.7zm-7.8-8.5c2.7-2.7 7.2-2.7 9.9 0s2.7 7.2 0 9.9c-.2.2-.2.5 0 .7.1.1.2.1.4.1s.3 0 .4-.1c3.1-3.1 3.1-8.2 0-11.3-3.1-3.1-8.2-3.1-11.3 0-.2.2-.2.5 0 .7.2.2.5.2.6 0z"/>
</svg>
