<svg xmlns="http://www.w3.org/2000/svg" width="24" height="26" viewBox="0 0 24 26">
    <path fill="#FC3B30" fill-rule="nonzero" d="M20.87 3.13h-4.174v4.696c0 .313-.209.522-.522.522-.313 0-.522-.209-.522-.522V1.565c0-.313.209-.522.522-.522h2.087c.313 0 .522-.208.522-.521 0-.313-.21-.522-.522-.522h-2.087c-.835 0-1.565.73-1.565 1.565V3.13H5.217C2.296 3.13 0 5.426 0 8.348v6.782c0 .835.73 1.566 1.565 1.566h12V24H12c-.313 0-.522.209-.522.522 0 .313.209.521.522.521h5.217c.313 0 .522-.208.522-.521 0-.313-.209-.522-.522-.522h-1.565v-7.304h6.783c.835 0 1.565-.73 1.565-1.566V6.26c0-1.773-1.357-3.13-3.13-3.13zM9.39 15.652H1.565c-.313 0-.522-.209-.522-.522V8.348a4.186 4.186 0 0 1 4.174-4.174 4.186 4.186 0 0 1 4.174 4.174v7.304zm-1.565-3.13c.313 0 .522.208.522.521 0 .314-.209.522-.522.522H2.61c-.313 0-.522-.208-.522-.522 0-.313.209-.521.522-.521h5.217z"/>
</svg>
