<svg width="0" height="0" class="hidden">
      <symbol xmlns="http://www.w3.org/2000/svg" width="50" height="50" id="computer" viewBox="0 0 50 50">
            <defs>
            <style>
                  .a{fill:#ef233c;}.b{fill:#edf2f4;}
            </style>
            </defs>
            <g transform="translate(0 0)">
            <circle cx="25" cy="25" r="25" class="a"/>
            <g transform="translate(7.404 10.283)">
                  <path d="M29.76,19.6H4.836A4.5,4.5,0,0,0,0,24.436v16.71a4.5,4.5,0,0,0,4.836,4.836h9.226v3.08H12.529a.744.744,0,0,0,0,1.488H22.35a.744.744,0,0,0,0-1.488H20.534v-3.08H29.76A4.5,4.5,0,0,0,34.6,41.146V24.436A4.5,4.5,0,0,0,29.76,19.6ZM19.046,49.063h-3.5v-3.08h3.5Zm14.061-7.916a3.072,3.072,0,0,1-3.348,3.348H4.836a3.072,3.072,0,0,1-3.348-3.348V40.083h31.62Zm0-2.545H1.488V24.466a3.072,3.072,0,0,1,3.348-3.348H29.76a3.072,3.072,0,0,1,3.348,3.348Z" class="b" transform="translate(0 -19.6)"/>
            </g>
            <g transform="translate(12.776 14.379)">
                  <g transform="translate(0 0)">
                        <path d="M78.854,55.909a.7.7,0,0,0-1.022.153h.036l-5.443,7.7-2.554-3.5a.7.7,0,0,0-1.124-.039l-4.159,4.991-3.05-5.5a.708.708,0,0,0-1.248-.008l-5.034,8.588a.8.8,0,0,0,.09,1.085.7.7,0,0,0,1.028-.095.78.78,0,0,0,.123-.22l4.378-7.533,2.918,5.307a.709.709,0,0,0,1,.276.741.741,0,0,0,.176-.153l4.246-5.014,2.6,3.574a.83.83,0,0,0,.584.3.718.718,0,0,0,.576-.308L79,56.987A.8.8,0,0,0,78.854,55.909Z" class="b" transform="translate(-55.087 -55.754)"/>
                  </g>
            </g>
            </g>
      </symbol>
      <symbol xmlns="http://www.w3.org/2000/svg" width="50" height="50" viewBox="0 0 50 50" id="recruitment">
            <defs>
            <style>
                  .a{fill:#2b2d42;}.b{fill:#edf2f4;}
            </style>
            </defs>
            <g transform="translate(0 0)">
            <circle cx="25" cy="25" r="25" class="a" transform="translate(0 0)"/>
            <g transform="translate(8.625 12.429)">
                  <path d="M30.706,117.081a2.787,2.787,0,0,0,.478-1.563v-.534A2.8,2.8,0,0,0,26.4,113a9.86,9.86,0,0,0-18.7,0,2.8,2.8,0,0,0-4.781,1.984v.534a2.787,2.787,0,0,0,.478,1.563A4.294,4.294,0,0,0,0,121.275v1.341a.666.666,0,0,0,.666.666H4.13a.666.666,0,0,0,0-1.332h-2.8v-.675a2.958,2.958,0,0,1,2.954-2.954H7.439a9.8,9.8,0,0,0,1.308,3.12l-7.6,7.6a2.5,2.5,0,0,0,3.531,3.531l4.19-4.19a.666.666,0,1,0-.942-.942l-4.19,4.19a1.164,1.164,0,1,1-1.646-1.646l7.462-7.461a9.855,9.855,0,0,0,17.118-4.2h3.153a2.958,2.958,0,0,1,2.954,2.954v.675H26.513a.666.666,0,0,0,0,1.332h6.928a.666.666,0,0,0,.666-.666v-1.341A4.294,4.294,0,0,0,30.706,117.081ZM7.2,115.518a1.471,1.471,0,0,1-2.942,0v-.534a1.471,1.471,0,1,1,2.942,0Zm9.855,9.143a8.527,8.527,0,1,1,8.527-8.527A8.537,8.537,0,0,1,17.054,124.661Zm12.8-9.143a1.471,1.471,0,0,1-2.942,0v-.534a1.471,1.471,0,1,1,2.942,0Z" class="b" transform="translate(0 -106.275)"/>
            </g>
            <g transform="translate(18.565 15.114)">
                  <path d="M155.195,146.275a7.191,7.191,0,0,0-4.934,12.426.664.664,0,0,0,.077.072,7.181,7.181,0,0,0,9.713,0,.66.66,0,0,0,.077-.072,7.191,7.191,0,0,0-4.934-12.426Zm0,13.057a5.834,5.834,0,0,1-3.63-1.263,4.111,4.111,0,0,1,7.261,0A5.834,5.834,0,0,1,155.195,159.332Zm-1.4-6.181v-.518a1.4,1.4,0,1,1,2.808,0v.518a1.4,1.4,0,1,1-2.808,0Zm6.009,3.942a5.4,5.4,0,0,0-2.549-2.14,2.724,2.724,0,0,0,.68-1.8v-.518a2.736,2.736,0,0,0-5.472,0v.518a2.724,2.724,0,0,0,.68,1.8,5.4,5.4,0,0,0-2.549,2.14,5.862,5.862,0,1,1,9.21,0Z" class="b" transform="translate(-148 -146.275)"/>
            </g>
            <g transform="translate(18.243 31.599)">
                  <path d="M143.937,394.5a.666.666,0,1,0,.2.471A.671.671,0,0,0,143.937,394.5Z" class="b" transform="translate(-142.8 -394.309)"/>
            </g>
            <g transform="translate(25.108 5.442)">
                  <path d="M246.869.009a.666.666,0,0,0-.666.666V2.942a.666.666,0,1,0,1.332,0V.675A.666.666,0,0,0,246.869.009Z" class="b" transform="translate(-246.203 -0.009)"/>
            </g>
            <g transform="translate(25.107 9.871)">
                  <path d="M247.337,67.2a.666.666,0,1,0,.2.471A.67.67,0,0,0,247.337,67.2Z" class="b" transform="translate(-246.2 -67.009)"/>
            </g>
            <g transform="translate(29.097 7.832)">
                  <path d="M308.639,36.5a.666.666,0,0,0-.942,0l-1.171,1.171a.666.666,0,0,0,.942.942l1.171-1.171A.666.666,0,0,0,308.639,36.5Z" class="b" transform="translate(-306.331 -36.307)"/>
            </g>
            <g transform="translate(19.92 7.829)">
                  <path d="M170.411,37.636l-1.182-1.182a.666.666,0,1,0-.942.942l1.182,1.182a.666.666,0,1,0,.942-.942Z" class="b" transform="translate(-168.091 -36.259)"/>
            </g>
            </g>
      </symbol>
      <symbol xmlns="http://www.w3.org/2000/svg" id="group" width="50" height="50" viewBox="0 0 50 50">
            <defs>
                  <style>
                        .a{fill:#2b2d42;}.b{fill:#edf2f4;}
                  </style>
            </defs>
            <g transform="translate(0 0)">
                  <circle cx="25" cy="25" r="25" class="a"/>
                  <g transform="translate(17.04 11.649)">
                        <g transform="translate(0 0)">
                        <path d="M158.733,105.292l-3.148-1.376a.606.606,0,0,1-.366-.554v-.85a4.483,4.483,0,0,0,1.737-3.534v-1.2a1.1,1.1,0,0,0,.579-.965V96.7a4.562,4.562,0,0,0-4.595-4.518h-1.158a4.562,4.562,0,0,0-4.595,4.518v1.054a1.11,1.11,0,0,0,.432.895,1.061,1.061,0,0,0,.147.093v.235a4.483,4.483,0,0,0,1.737,3.534v.85a.606.606,0,0,1-.366.554l-3.148,1.376a2.81,2.81,0,0,0-1.7,2.568v7.059a.542.542,0,0,0,1.083,0v-7.059a1.717,1.717,0,0,1,.011-.183l1.451,1.426a1.158,1.158,0,0,1,.35.831v4.985a.542.542,0,0,0,1.083,0v-4.985a2.207,2.207,0,0,0-.667-1.584l-1.729-1.7a1.77,1.77,0,0,1,.555-.384l3.095-1.352,2.3,2.257v7.749a.542.542,0,0,0,1.083,0v-7.749l2.3-2.257,3.095,1.352a1.769,1.769,0,0,1,.555.384l-1.729,1.7a2.207,2.207,0,0,0-.667,1.584v4.985a.542.542,0,0,0,1.083,0v-4.985a1.158,1.158,0,0,1,.35-.831l1.45-1.426a1.71,1.71,0,0,1,.011.183v7.059a.542.542,0,0,0,1.083,0v-7.059A2.811,2.811,0,0,0,158.733,105.292Zm-6.372.9-2.014-1.98a1.647,1.647,0,0,0,.24-.853v-.217a4.663,4.663,0,0,0,3.549,0v.217a1.647,1.647,0,0,0,.24.853Zm0-3.764a3.486,3.486,0,0,1-3.511-3.452v-.24a3.209,3.209,0,0,0,.984-.628.526.526,0,0,0,.031-.753.548.548,0,0,0-.766-.03,1.953,1.953,0,0,1-.8.472l-.014,0a.107.107,0,0,1-.009-.048V96.7a3.486,3.486,0,0,1,3.511-3.452h1.158a3.486,3.486,0,0,1,3.511,3.452v.116a.034.034,0,0,1-.024.035c-3.244.63-4.871-.557-5.42-1.1a.548.548,0,0,0-.766,0,.526.526,0,0,0,0,.753c1.682,1.654,4.137,1.684,5.632,1.507v.962A3.486,3.486,0,0,1,152.361,102.431Z" class="b" transform="translate(-144.292 -92.184)"/>
                        </g>
                  </g>
                  <g transform="translate(7.198 14.515)">
                        <g transform="translate(0 0)">
                        <path d="M9.769,139.612v-1.136a3.921,3.921,0,0,0-1.841-3.309,2.2,2.2,0,0,0,.1-.667,2.279,2.279,0,0,0-4.557,0,2.184,2.184,0,0,0,.1.667,3.92,3.92,0,0,0-1.841,3.309v1.136a3.916,3.916,0,0,0,1.737,3.241v1.168a.6.6,0,0,1-.341.541l-1.874.919a2.219,2.219,0,0,0-1.26,2v4.626a.537.537,0,0,0,.542.531.537.537,0,0,0,.542-.531v-4.4l.883.866a1.154,1.154,0,0,1,.35.829v2.7a.542.542,0,0,0,1.083,0v-2.7a2.2,2.2,0,0,0-.667-1.58l-1.228-1.2-.018-.016a1.211,1.211,0,0,1,.259-.172l1.874-.919a1.73,1.73,0,0,0,.269-.165l1.325,1.3v5.459a.542.542,0,0,0,1.083,0v-5.459l1.325-1.3a1.724,1.724,0,0,0,.269.165l.517.253a.547.547,0,0,0,.727-.238.527.527,0,0,0-.242-.713l-.517-.253a.6.6,0,0,1-.341-.541v-1.168A3.916,3.916,0,0,0,9.769,139.612Zm-4.016-6.284a1.185,1.185,0,0,1,1.2,1.172,1.168,1.168,0,0,1-.019.209,4.09,4.09,0,0,0-2.351,0,1.158,1.158,0,0,1-.021-.209A1.185,1.185,0,0,1,5.753,133.328Zm0,2.272a2.908,2.908,0,0,1,2.932,2.876v.193a3.434,3.434,0,0,1-3.657-1.079.549.549,0,0,0-.816-.057,3.555,3.555,0,0,1-1.389.87A2.909,2.909,0,0,1,5.753,135.6Zm0,10.076L4.5,144.447a1.652,1.652,0,0,0,.057-.426v-.649a4.1,4.1,0,0,0,2.391,0v.649a1.652,1.652,0,0,0,.057.426Zm0-3.187a2.908,2.908,0,0,1-2.932-2.876v-.11a4.379,4.379,0,0,0,1.741-.851,4.884,4.884,0,0,0,1,.717,4.374,4.374,0,0,0,2.07.524,4.622,4.622,0,0,0,1.044-.123A2.912,2.912,0,0,1,5.753,142.488Z" class="b" transform="translate(0 -132.265)"/>
                        </g>
                  </g>
                  <g transform="translate(32.095 15.268)">
                        <path d="M370.393,159.455l-3.032-1.516a.613.613,0,0,1-.341-.551v-.768a3.429,3.429,0,0,0,1.158-2.57v-.617h.037a.542.542,0,0,0,.542-.542v-1.158a3.441,3.441,0,0,0-3.437-3.437h-1.158a3.441,3.441,0,0,0-3.437,3.437v1.158a.542.542,0,0,0,.542.542h.037v.617a3.429,3.429,0,0,0,1.158,2.57v.768a.613.613,0,0,1-.341.551.542.542,0,1,0,.485.969,1.724,1.724,0,0,0,.269-.168l1.325,1.325v7.3a.542.542,0,1,0,1.083,0v-7.3l1.324-1.325a1.717,1.717,0,0,0,.269.168l2.934,1.467-.89.89a2.264,2.264,0,0,0-.667,1.611v4.492a.542.542,0,1,0,1.083,0v-4.492a1.187,1.187,0,0,1,.35-.845l.843-.843a1.207,1.207,0,0,1,.04.305v5.875a.542.542,0,1,0,1.083,0v-5.875A2.266,2.266,0,0,0,370.393,159.455Zm-8.584-7.216v-.5h0a2.356,2.356,0,0,1,2.353-2.353h1.158a2.356,2.356,0,0,1,2.353,2.353v.6a8.285,8.285,0,0,1-3.79-1.053.542.542,0,0,0-.684.068A3.548,3.548,0,0,1,361.809,152.24Zm2.932,6.835-1.252-1.252a1.716,1.716,0,0,0,.057-.435v-.115a3.434,3.434,0,0,0,2.391,0v.115a1.711,1.711,0,0,0,.057.435Zm0-2.671a2.356,2.356,0,0,1-2.353-2.353v-.873h0a4.584,4.584,0,0,0,1.271-.776,9.625,9.625,0,0,0,3.435.977v.673A2.356,2.356,0,0,1,364.742,156.4Z" class="b" transform="translate(-360.726 -148.298)"/>
                  </g>
            </g>
      </symbol>
      <symbol xmlns="http://www.w3.org/2000/svg" width="50" height="50" viewBox="0 0 50 50" id="rocket">
            <defs>
                  <style>
                        .a{fill:#ef233c;}.b{fill:#edf2f4;}
                  </style>
            </defs>
            <g transform="translate(0 0)">
                  <circle cx="25" cy="25" r="25" class="a"/>
                  <g transform="translate(9.884 39.671)">
                        <g transform="translate(0)">
                        <circle cx="0.611" cy="0.611" r="0.611" class="b"/>
                        </g>
                  </g>
                  <g transform="translate(25.499 24.167)">
                        <circle cx="0.61" cy="0.61" r="0.61" class="b"/>
                  </g>
                  <g transform="translate(29.667 16.282)">
                        <path d="M329.983,106.277a2.6,2.6,0,1,0,0,3.673A2.58,2.58,0,0,0,329.983,106.277Zm-.863,2.81a1.377,1.377,0,1,1,0-1.947A1.378,1.378,0,0,1,329.12,109.086Z" class="b" transform="translate(-325.551 -105.516)"/>
                  </g>
                  <g transform="translate(11.849 33)">
                        <path d="M38.005,382.49a.61.61,0,0,0-.818.274l-.727,1.459a2.014,2.014,0,0,1-1.659,1.107l-.845.058a.362.362,0,0,1-.385-.385l.058-.845a2.014,2.014,0,0,1,1.107-1.659l1.459-.727a.61.61,0,1,0-.544-1.092l-1.459.727a3.238,3.238,0,0,0-1.781,2.668l-.058.845a1.582,1.582,0,0,0,1.578,1.69c.036,0,.072,0,.108,0l.845-.058a3.238,3.238,0,0,0,2.668-1.781l.727-1.459A.61.61,0,0,0,38.005,382.49Z" class="b" transform="translate(-32.35 -380.616)"/>
                  </g>
                  <g transform="translate(9.885 9.961)">
                        <g transform="translate(0 0)">
                        <path d="M30.71,1.9a1.413,1.413,0,0,0-1.081-.4l-.568.036A18.408,18.408,0,0,0,15.982,8.277L14.645,9.923l-3.5-.1h-.018a10.322,10.322,0,0,0-7.347,3.043L.2,16.448a.61.61,0,0,0,.4,1.041l7.587.39-.309.381a.61.61,0,0,0-.062.676q.178.328.373.645l-1.8,2.136a.61.61,0,0,0-.085.654,7.944,7.944,0,0,0,3.814,3.814.61.61,0,0,0,.645-.078c.388-.314.834-.687,1.267-1.048.308-.257.623-.52.918-.762q.264.159.534.307a.61.61,0,0,0,.666-.054l.416-.323.391,7.619a.61.61,0,0,0,1.041.4l3.584-3.584a10.322,10.322,0,0,0,3.043-7.347V17.972l1.414-1.1a18.335,18.335,0,0,0,7.08-13.6l.015-.3A1.414,1.414,0,0,0,30.71,1.9ZM2.03,16.34l2.614-2.614a9.11,9.11,0,0,1,6.475-2.686l2.557.075-4.54,5.59Zm9.216,7.782c-.318.266-.645.538-.948.787a6.7,6.7,0,0,1-2.718-2.716L8.9,20.63A14.145,14.145,0,0,0,10.2,22.145h0a14.145,14.145,0,0,0,1.68,1.444ZM21.4,21.314A9.11,9.11,0,0,1,18.714,27.8L16.1,30.412l-.365-7.1,5.664-4.4v2.4Zm8.5-18.1a17.116,17.116,0,0,1-6.61,12.7l-9.569,7.425a12.919,12.919,0,0,1-2.21-1.631l3.226-3.226a.61.61,0,0,0-.863-.863l-3.223,3.223a12.917,12.917,0,0,1-1.564-2.133l7.846-9.659a17.184,17.184,0,0,1,12.209-6.3l.568-.036a.192.192,0,0,1,.2.2Z" class="b" transform="translate(-0.018 -1.492)"/>
                        </g>
                  </g>
            </g>
      </symbol>
      <symbol xmlns="http://www.w3.org/2000/svg" width="50" height="50" viewBox="0 0 50 50" id="hand">
            <defs>
                  <style>
                        .a{fill:#2b2d42;}.b{fill:#edf2f4;}
                  </style>
            </defs>
            <g transform="translate(0 0)">
                  <circle cx="25" cy="25" r="25" class="a"/>
                  <g transform="translate(12.277 14.437)">
                        <g transform="translate(0 0)">
                        <path d="M82.841,93.522l-5.789-6.361a2.947,2.947,0,0,0-4.168.009,2.881,2.881,0,0,0-.745,1.273,2.949,2.949,0,0,0-4.62,1.538,2.95,2.95,0,0,0-3.872.268,2.914,2.914,0,0,0-.739,1.242l-2.728-2.728a2.947,2.947,0,0,0-4.168,4.168l10.481,10.481-6.217.976a3.449,3.449,0,0,0-2.947,3.4,2.312,2.312,0,0,0,2.309,2.309H74.157a8.411,8.411,0,0,0,5.987-2.48l2.422-2.422a8.457,8.457,0,0,0,.276-11.671ZM81.477,104.1l-2.422,2.422a6.882,6.882,0,0,1-4.9,2.029H59.641a.77.77,0,0,1-.77-.77,1.9,1.9,0,0,1,1.637-1.875l7.721-1.213a.769.769,0,0,0,.425-1.3L57.1,91.842a1.408,1.408,0,0,1,1.991-1.991l7.7,7.7a.77.77,0,1,0,1.087-1.09l-3.145-3.145a1.408,1.408,0,0,1,1.991-1.991l3.147,3.147a.77.77,0,1,0,1.087-1.09l-1.606-1.606a1.408,1.408,0,0,1,1.991-1.991L72.959,91.4s0,0,0,0l0,0,0,0,0,0h0a0,0,0,0,1,0,0,.77.77,0,0,0,1.073-1.1l-.066-.066a1.408,1.408,0,0,1,1.965-2.017L81.7,94.558a6.919,6.919,0,0,1-.226,9.547Z" class="b" transform="translate(-55.153 -86.302)"/>
                        </g>
                  </g>
                  <g transform="translate(8.297 12.058)">
                        <path d="M13.234,57.417a6.921,6.921,0,1,0-9.149,9.151.77.77,0,0,0,.634-1.4,5.382,5.382,0,1,1,7.113-7.113.77.77,0,1,0,1.4-.634Z" class="b" transform="translate(0 -53.333)"/>
                  </g>
            </g>
      </symbol>
      <symbol xmlns="http://www.w3.org/2000/svg" id="ring" width="50" height="50" viewBox="0 0 50 50">
            <defs>
                  <style>
                        .a{fill:#2b2d42;}.b{fill:#edf2f4;}
                  </style>
            </defs>
            <g transform="translate(0 0)">
                  <circle cx="25" cy="25" r="25" class="a"/>
                  <path d="M46.191,8.659a.524.524,0,0,0,0,1.048,3.347,3.347,0,0,1,3.343,3.343.524.524,0,0,0,1.048,0A4.4,4.4,0,0,0,46.191,8.659Z" class="b" transform="translate(-13.51 3.209)"/>
                  <path d="M8.952,13.05a.524.524,0,0,0,1.048,0,3.347,3.347,0,0,1,3.343-3.343.524.524,0,0,0,0-1.048A4.4,4.4,0,0,0,8.952,13.05Z" class="b" transform="translate(3.968 3.209)"/>
                  <path d="M47.667,1.278a.524.524,0,0,0,0,1.048A6.444,6.444,0,0,1,54.1,8.763a.524.524,0,1,0,1.048,0A7.494,7.494,0,0,0,47.667,1.278Z" class="b" transform="translate(-14.212 6.722)"/>
                  <path d="M9.58,1.8a.524.524,0,0,0-.524-.524A7.493,7.493,0,0,0,1.571,8.763a.524.524,0,1,0,1.048,0A6.444,6.444,0,0,1,9.056,2.326.524.524,0,0,0,9.58,1.8Z" class="b" transform="translate(7.482 6.722)"/>
                  <path d="M31.329,27.408a1.123,1.123,0,0,0-.347-.5c.012-.319.02-.64.02-.965,0-7.136-2.956-13.18-7.039-15.253a3.2,3.2,0,1,0-6.215,0c-4.083,2.073-7.039,8.117-7.039,15.253,0,.324.008.645.02.965a1.123,1.123,0,0,0-.347.5L8.864,31.949a1.135,1.135,0,0,0,1.077,1.5h7.4a3.666,3.666,0,0,0,7.028,0h7.4a1.135,1.135,0,0,0,1.077-1.5Zm-13.1-15.761.757-.384-.2-.824a2.136,2.136,0,1,1,4.141,0l-.2.824.757.384c3.8,1.929,6.455,7.81,6.455,14.3q0,.329-.009.665H11.786q-.009-.336-.009-.665C11.777,19.457,14.431,13.576,18.231,11.647Zm2.624,23.369a2.624,2.624,0,0,1-2.4-1.572h4.8A2.624,2.624,0,0,1,20.855,35.016ZM31.841,32.36a.08.08,0,0,1-.071.036H9.941a.087.087,0,0,1-.083-.115l1.518-4.541a.088.088,0,0,1,.083-.06H30.252a.088.088,0,0,1,.083.06l1.518,4.541A.08.08,0,0,1,31.841,32.36Z" class="b" transform="translate(4.038 4.13)"/>
            </g>
      </symbol>
      <symbol xmlns="http://www.w3.org/2000/svg" id="note" width="50" height="50" viewBox="0 0 50 50">
            <defs>
                  <style>
                        .a{fill:#2b2d42;}.b{fill:#edf2f4;}
                  </style>
            </defs>
            <g transform="translate(0 0)">
                  <circle cx="25" cy="25" r="25" class="a"/>
                  <path d="M45.926,34.22l-1.69-1.69a1.814,1.814,0,0,0-2.5,0l-9.127,9.127L31.348,46.27l-.308.308a.592.592,0,0,0,0,.833l0,.012.011,0a.591.591,0,0,0,.834,0l.308-.308L36.8,45.851l9.127-9.127A1.772,1.772,0,0,0,45.926,34.22ZM33.975,41.965l6.074-6.074,2.516,2.516-6.074,6.074Zm-.535,1.142,1.91,1.91-2.626.716Zm11.647-7.222L43.4,37.568l-2.516-2.516,1.684-1.684a.6.6,0,0,1,.826,0l1.69,1.69A.585.585,0,0,1,45.087,35.885Z" class="b" transform="translate(-1.449 -6.418)"/>
                  <path d="M7.728,35.186H23.146a.593.593,0,1,0,0-1.186H7.728a.593.593,0,1,0,0,1.186Z" class="b" transform="translate(8.21 -7.22)"/>
                  <path d="M20.774,40H7.728a.593.593,0,1,0,0,1.186H20.774a.593.593,0,1,0,0-1.186Z" class="b" transform="translate(8.21 -9.662)"/>
                  <path d="M7.728,17.186h7.709a.593.593,0,0,0,0-1.186H7.728a.593.593,0,0,0,0,1.186Z" class="b" transform="translate(8.21 0.106)"/>
                  <path d="M15.437,47.186a.593.593,0,1,0,0-1.186H7.728a.593.593,0,1,0,0,1.186Z" class="b" transform="translate(8.21 -12.104)"/>
                  <path d="M24.925,22H7.728a.593.593,0,1,0,0,1.186h17.2a.593.593,0,1,0,0-1.186Z" class="b" transform="translate(8.21 -2.336)"/>
                  <path d="M7.728,29.186h8.3a.593.593,0,1,0,0-1.186h-8.3a.593.593,0,1,0,0,1.186Z" class="b" transform="translate(8.21 -4.778)"/>
                  <path d="M34.472,28.593A.593.593,0,0,0,33.879,28H29.728a.593.593,0,1,0,0,1.186h4.151A.592.592,0,0,0,34.472,28.593Z" class="b" transform="translate(-0.744 -4.778)"/>
                  <path d="M26.149,29.018a.6.6,0,1,0-1.014-.421.61.61,0,0,0,.172.421.6.6,0,0,0,.842,0Z" class="b" transform="translate(0.884 -4.783)"/>
                  <path d="M15.96,33.209H2.321V4.744H6.472V5.93a.593.593,0,0,0,.593.593H20.7A.593.593,0,0,0,21.3,5.93V4.744h4.151V17.79a.593.593,0,1,0,1.186,0V4.151a.593.593,0,0,0-.593-.593H21.3V2.372a.593.593,0,0,0-.593-.593H17.146V.593A.593.593,0,0,0,16.553,0H11.216a.593.593,0,0,0-.593.593V1.779H7.065a.593.593,0,0,0-.593.593V3.558H1.728a.593.593,0,0,0-.593.593V33.8a.593.593,0,0,0,.593.593H15.96a.593.593,0,1,0,0-1.186ZM11.809,1.186H15.96V3.558H11.809V1.186ZM7.658,2.965h2.965V4.151a.593.593,0,0,0,.593.593h5.337a.593.593,0,0,0,.593-.593V2.965h2.965V5.337H7.658V2.965Z" class="b" transform="translate(10.652 6.618)"/>
            </g>
      </symbol>
      <symbol xmlns="http://www.w3.org/2000/svg" width="50" height="50" viewBox="0 0 50 50" id="edit">
            <defs>
                  <style>
                        .a{fill:#2b2d42;}.b{fill:#edf2f4;}
                  </style>
            </defs>
            <g transform="translate(0 0)">
                  <circle cx="25" cy="25" r="25" class="a"/>
                  <path d="M27.372,54.816a.739.739,0,0,0-.739.739v6.558a2.218,2.218,0,0,1-2.216,2.216H3.693a2.218,2.218,0,0,1-2.216-2.216V42.865a2.218,2.218,0,0,1,2.216-2.216h6.558a.739.739,0,1,0,0-1.477H3.693A3.7,3.7,0,0,0,0,42.865V62.113a3.7,3.7,0,0,0,3.693,3.693H24.418a3.7,3.7,0,0,0,3.693-3.693V55.555a.739.739,0,0,0-.739-.739Zm0,0" class="b" transform="translate(10.636 -26.3)"/>
                  <path d="M128.018,1.234a3.324,3.324,0,0,0-4.7,0L110.14,14.412a.738.738,0,0,0-.19.325l-1.733,6.256a.738.738,0,0,0,.909.909l6.256-1.733a.738.738,0,0,0,.325-.19L128.884,6.8a3.327,3.327,0,0,0,0-4.7ZM111.749,14.892,122.534,4.107l3.478,3.478L115.227,18.37Zm-.695,1.394,2.779,2.779-3.844,1.065ZM127.84,5.757l-.783.783-3.478-3.478.784-.783a1.846,1.846,0,0,1,2.611,0l.867.867A1.849,1.849,0,0,1,127.84,5.757Zm0,0" class="b" transform="translate(-89.563 9.737)"/>
            </g>
      </symbol>
</svg>
