<svg width="0" height="0" class="hidden">
    <symbol xmlns="http://www.w3.org/2000/svg" width="36" height="37" viewBox="0 0 36 37" id="group">
        <g fill-rule="nonzero">
            <path d="M10.33 30.157c0 .442-.296.736-.738.736H5.165c-.443 0-.738-.294-.738-.736v-6.62c0-.882-.59-1.47-1.476-1.47h-.738c-.442 0-.737-.295-.737-.736v-3.678c0-3.236 2.656-5.884 5.902-5.884 1.918 0 3.69 1.03 4.87 2.5-1.18 1.325-1.919 2.943-1.919 4.855V30.157zM33.94 21.33c0 .442-.296.736-.738.736h-.738c-.885 0-1.476.589-1.476 1.471v6.62c0 .442-.295.736-.738.736h-4.426c-.443 0-.738-.294-.738-.736V19.124c0-1.912-.738-3.53-1.919-4.854a5.938 5.938 0 0 1 4.87-2.501c3.246 0 5.903 2.648 5.903 5.884v3.678z" opacity=".1"/>
            <path d="M17.708 10.298c2.508 0 4.427-1.913 4.427-4.414 0-2.5-1.919-4.413-4.427-4.413-2.509 0-4.427 1.913-4.427 4.413 0 2.501 1.918 4.414 4.427 4.414zm0-7.356a2.955 2.955 0 0 1 2.95 2.942 2.955 2.955 0 0 1-2.95 2.943 2.955 2.955 0 0 1-2.952-2.943 2.955 2.955 0 0 1 2.952-2.942zM28.037 8.827c2.509 0 4.427-1.913 4.427-4.414 0-2.5-1.918-4.413-4.427-4.413-2.509 0-4.427 1.912-4.427 4.413 0 2.501 1.918 4.414 4.427 4.414zm0-7.356a2.955 2.955 0 0 1 2.951 2.942 2.955 2.955 0 0 1-2.951 2.942 2.955 2.955 0 0 1-2.951-2.942 2.955 2.955 0 0 1 2.951-2.942zM7.378 8.827c2.509 0 4.427-1.913 4.427-4.414C11.805 1.913 9.887 0 7.378 0 4.87 0 2.951 1.912 2.951 4.413c0 2.501 1.919 4.414 4.427 4.414zm0-7.356a2.955 2.955 0 0 1 2.951 2.942 2.955 2.955 0 0 1-2.95 2.942 2.955 2.955 0 0 1-2.952-2.942 2.955 2.955 0 0 1 2.951-2.942zM28.037 10.298c-2.361 0-4.574 1.177-5.902 2.942a7.602 7.602 0 0 0-4.427-1.471 7.602 7.602 0 0 0-4.427 1.47c-1.328-1.764-3.542-2.941-5.903-2.941C3.246 10.298 0 13.534 0 17.653v3.678c0 1.177 1.033 2.206 2.213 2.206h.738v6.62c0 1.177 1.033 2.207 2.214 2.207h4.427c1.18 0 2.213-1.03 2.213-2.207v-3.824c.295.147.443.147.738.147h.738v8.09c0 1.178 1.033 2.207 2.213 2.207h4.427c1.18 0 2.214-1.03 2.214-2.206V26.48h.737c.295 0 .443 0 .738-.147v3.824c0 1.177 1.033 2.207 2.214 2.207h4.426c1.181 0 2.214-1.03 2.214-2.207v-6.62h.738c1.18 0 2.213-1.03 2.213-2.206v-3.678c0-4.119-3.246-7.355-7.378-7.355zm-17.708 19.86c0 .44-.295.735-.737.735H5.165c-.443 0-.738-.294-.738-.736v-6.62c0-.882-.59-1.47-1.476-1.47h-.738c-.442 0-.737-.295-.737-.736v-3.678c0-3.236 2.656-5.884 5.902-5.884 1.918 0 3.69 1.03 4.87 2.5-1.18 1.325-1.919 2.943-1.919 4.855V30.157zm12.543-5.15h-.737c-.886 0-1.476.589-1.476 1.472v8.09c0 .442-.295.736-.738.736h-4.427c-.443 0-.738-.294-.738-.735V26.48c0-.883-.59-1.471-1.475-1.471h-.738c-.443 0-.738-.295-.738-.736v-5.149c0-3.236 2.656-5.884 5.903-5.884 3.246 0 5.902 2.648 5.902 5.884v5.149c0 .441-.295.736-.738.736zm11.068-3.677c0 .441-.296.735-.738.735h-.738c-.885 0-1.476.589-1.476 1.471v6.62c0 .442-.295.736-.738.736h-4.426c-.443 0-.738-.294-.738-.736V19.124c0-1.912-.738-3.53-1.919-4.854a5.938 5.938 0 0 1 4.87-2.501c3.246 0 5.903 2.648 5.903 5.884v3.678z"/>
        </g>
    </symbol>
    <symbol xmlns="http://www.w3.org/2000/svg" width="36" height="36" viewBox="0 0 36 36" id="chart">
    <g fill-rule="nonzero">
        <path d="M28.671 16.692c-.563-4.087-3.382-7.47-7.47-8.738l.847-5.637c6.764 1.691 11.556 7.328 12.12 14.234l-5.497.141zM18.242 34.309c-8.879 0-16.207-7.329-16.207-16.208 0-8.456 6.483-15.361 14.798-16.207v5.637c-5.215.705-9.16 5.074-9.16 10.43 0 5.778 4.791 10.57 10.57 10.57 1.69 0 3.382-.423 4.932-1.128l3.241 4.65c-2.536 1.551-5.355 2.256-8.174 2.256z" opacity=".1"/>
        <path d="M24.584 24.584l5.92 5.92c2.536-2.537 4.369-6.06 4.932-9.866l-8.315-1.268a7.699 7.699 0 0 1-2.537 5.214zm9.302-2.677a15.633 15.633 0 0 1-3.382 6.623l-3.947-3.946c.846-.986 1.41-2.255 1.692-3.382l5.637.705zM20.92.766l-1.41 8.316c4.37.704 7.752 4.51 7.752 9.02h8.456C35.86 9.362 29.376 2.175 20.92.765zm7.751 15.926c-.563-4.087-3.382-7.47-7.47-8.738l.847-5.637c6.764 1.691 11.556 7.328 12.12 14.234l-5.497.141z"/>
        <path d="M18.242 27.262a9.142 9.142 0 0 1-9.16-9.16 9.142 9.142 0 0 1 9.16-9.161V.485C8.518.485.626 8.377.626 18.1c0 9.725 7.892 17.617 17.616 17.617 3.806 0 7.329-1.268 10.148-3.241l-4.933-6.906a8.856 8.856 0 0 1-5.215 1.691zm0 7.047c-8.879 0-16.207-7.329-16.207-16.208 0-8.456 6.483-15.361 14.798-16.207v5.637c-5.215.705-9.16 5.074-9.16 10.43 0 5.778 4.791 10.57 10.57 10.57 1.69 0 3.382-.423 4.932-1.128l3.241 4.65c-2.536 1.551-5.355 2.256-8.174 2.256z"/>
    </g>
    </symbol>
    <symbol xmlns="http://www.w3.org/2000/svg" width="36" height="35" viewBox="0 0 36 35" id="device">
        <g fill-rule="nonzero">
            <path d="M31.56 19.146h2.865V33.47H31.56zM1.48 22.01h20.053v7.162H4.345a2.873 2.873 0 0 1-2.865-2.864V22.01zM25.83 17.714h2.865V4.822H4.345v14.324h20.053c0-.716.573-1.432 1.432-1.432z" opacity=".1"/>
            <path d="M22.25 33.47H20.1v-4.298h.717c.43 0 .716-.286.716-.716s-.286-.716-.716-.716H2.197c-.43 0-.717-.286-.717-.716v-3.581h19.337c.43 0 .716-.287.716-.716 0-.43-.286-.716-.716-.716H1.48V2.674c0-.43.287-.716.716-.716h28.648c.43 0 .716.286.716.716v11.459c0 .43.286.716.716.716s.716-.287.716-.716V2.673c0-1.145-1.003-2.148-2.148-2.148H2.196C1.05.525.048 1.528.048 2.674v24.35c0 1.146 1.002 2.148 2.148 2.148H12.94v4.297H10.79c-.43 0-.716.287-.716.717s.287.716.716.716h11.46c.429 0 .716-.287.716-.716 0-.43-.43-.717-.717-.717zm-3.582 0h-4.297v-4.298h4.297v4.297z"/>
            <path d="M34.424 17.714H25.83c-.86 0-1.432.572-1.432 1.432v14.323c0 .86.573 1.433 1.432 1.433h8.594c.86 0 1.433-.573 1.433-1.433V19.146c0-.716-.716-1.432-1.433-1.432zm0 15.755H25.83V19.146h8.594v14.323z"/>
            <path d="M29.411 32.037h1.433c.43 0 .716-.286.716-.716s-.287-.716-.716-.716H29.41c-.43 0-.716.286-.716.716s.286.716.716.716z"/>
        </g>
    </symbol>
    <symbol xmlns="http://www.w3.org/2000/svg" width="35" height="42" viewBox="0 0 35 42" id="graph">
        <g fill-rule="nonzero">
            <g>
                <path opacity=".1" d="M32.465 40.691h-3.739V30.41l3.74-3.74zM6.291 40.691H2.365V24.8l3.926-3.74z"/>
            </g>
            <path opacity=".1" d="M19.378 40.691H15.64V15.452l3.74-3.739z"/>
            <g>
                <path d="M31.53 22.93h-1.87c-1.495 0-2.803 1.31-2.803 2.805v13.087c0 1.495 1.308 2.804 2.804 2.804h1.87c1.495 0 2.804-1.309 2.804-2.804V25.735c0-1.496-1.309-2.805-2.805-2.805zm.935 15.892c0 .56-.374.935-.935.935h-1.87c-.56 0-.934-.374-.934-.935V25.735c0-.561.374-.935.935-.935h1.87c.56 0 .934.374.934.935v13.087zM18.443.496h-1.87c-1.495 0-2.803 1.308-2.803 2.804v35.522c0 1.495 1.308 2.804 2.804 2.804h1.87c1.495 0 2.804-1.309 2.804-2.804V3.3c0-1.496-1.309-2.804-2.805-2.804zm.935 38.326c0 .56-.374.935-.935.935h-1.87c-.56 0-.934-.374-.934-.935V3.3c0-.56.374-.935.935-.935h1.87c.56 0 .934.374.934.935v35.522zM5.357 15.452h-1.87c-1.496 0-2.804 1.309-2.804 2.805v20.565c0 1.495 1.308 2.804 2.804 2.804h1.87c1.495 0 2.804-1.309 2.804-2.804V18.257c0-1.496-1.309-2.805-2.804-2.805zm.934 23.37c0 .56-.374.935-.934.935h-1.87c-.56 0-.935-.374-.935-.935V18.257c0-.561.374-.935.935-.935h1.87c.56 0 .934.374.934.935v20.565z"/>
            </g>
        </g>
    </symbol>
    <symbol xmlns="http://www.w3.org/2000/svg" width="43" height="36" viewBox="0 0 43 36" id="performance">
        <g fill-rule="nonzero">
            <path opacity=".1" d="M35.755 2.021V23c0 .503-.335.84-.839.84H3.867v2.517c0 .503.336.839.84.839h33.566c.503 0 .839-.336.839-.84V2.022h-3.357z"/>
            <g>
                <path d="M41.63.343H1.35c-.504 0-.84.335-.84.839 0 .503.336.839.84.839h.839v24.336c0 1.342 1.175 2.517 2.517 2.517h12.42l-3.021 5.539c-.168.335 0 .839.336 1.174.167 0 .335.168.335.168.336 0 .504-.168.672-.503l3.524-6.21h5.035l3.524 6.21c.168.335.504.503.672.503.168 0 .335 0 .335-.168.336-.167.504-.67.336-1.174l-3.02-5.539h12.419c1.342 0 2.517-1.175 2.517-2.517V2.02h.84c.503 0 .839-.336.839-.84 0-.335-.504-.838-.84-.838zm-2.518 26.014c0 .503-.336.839-.84.839H4.707c-.503 0-.839-.336-.839-.84V2.022h35.245v24.336z"/>
                <path d="M8.902 21.322c.168 0 .504 0 .671-.168l7.72-7.72 6.043 6.042a.811.811 0 0 0 1.174 0l7.72-7.72v3.02c0 .504.336.84.84.84.503 0 .84-.336.84-.84V9.741c0-.503-.337-.839-.84-.839h-5.035c-.504 0-.84.336-.84.84 0 .503.336.838.84.838h3.02l-7.216 7.217-6.042-6.042a.811.811 0 0 0-1.175 0l-8.391 8.392a.811.811 0 0 0 0 1.175h.671z"/>
            </g>
        </g>
    </symbol>
    <symbol xmlns="http://www.w3.org/2000/svg" width="33" height="33" viewBox="0 0 33 33" id="download">
        <g fill-rule="nonzero">
            <path opacity=".1" d="M28.946 28.815h-11.77l2.224-5.753c.262-.524.654-.785 1.177-.785h3.138c.654 0 1.308-.523 1.308-1.177L26.2 3.97h2.615v24.845h.131z"/>
            <path opacity=".1" d="M19.792 1.354l-.523 3.923h8.37v18.308h-4.97c-.915 0-1.569.653-1.569 1.569v2.354h-4.708l-.523 3.923h15.693V1.354h-11.77z"/>
            <g>
                <path d="M30.908.046H2.138C1.092.046.177.962.177 2.008v28.769c0 1.046.915 1.961 1.961 1.961h28.77c1.046 0 1.961-.915 1.961-1.961V2.007c0-1.045-.915-1.96-1.961-1.96zm.654 30.73c0 .393-.262.655-.654.655H2.138c-.392 0-.653-.262-.653-.654V2.007c0-.392.261-.653.653-.653h28.77c.392 0 .654.261.654.654v28.769z"/>
                <path d="M27.638 3.97H5.408c-.785 0-1.308.522-1.308 1.307v18.308c0 .784.523 1.307 1.308 1.307h4.969c.13 0 .261.131.261.262v2.354c0 .784.524 1.307 1.308 1.307H21.1c.785 0 1.308-.523 1.308-1.307v-2.354c0-.13.13-.262.261-.262h4.97c.784 0 1.307-.523 1.307-1.307V5.277c0-.654-.654-1.308-1.308-1.308zm0 19.615H22.67c-.915 0-1.569.653-1.569 1.569v2.354h-9.154v-2.354c0-.916-.654-1.57-1.57-1.57H5.409V5.278h22.23v18.308z"/>
                <path d="M16 23.454c.13.13.262.13.523.13.262 0 .392 0 .523-.13l5.23-5.23a.632.632 0 0 0 0-.916.632.632 0 0 0-.914 0l-4.054 4.054V8.546c0-.392-.262-.654-.654-.654S16 8.154 16 8.546v12.816l-4.054-4.054a.632.632 0 0 0-.915 0 .632.632 0 0 0 0 .915L16 23.453z"/>
            </g>
        </g>
    </symbol>
    <symbol xmlns="http://www.w3.org/2000/svg" width="33" height="36" viewBox="0 0 33 36" id="notification">
        <g fill-rule="nonzero">
            <path opacity=".1" d="M30.063 24.592c0-.154-.155-.309-.309-.463l-1.85-1.079c-1.079-.617-1.85-1.542-2.158-2.775L22.97 9.945C21.738 5.168 17.267 1.93 12.333 1.93c-.925 0-1.85.154-2.775.308-1.541.463-2.775 1.08-4.008 2.005.463-.154.77-.309 1.233-.463.771-.154 1.696-.308 2.467-.308 4.317 0 8.017 2.775 9.096 6.937l2.775 10.33c.462 1.541 1.387 2.929 2.929 3.7L3.854 29.832l-.925 1.542c-.154.154-.154.308 0 .617l.154.616 27.134-7.245-.154-.771z"/>
            <g>
                <path d="M31.604 24.13c-.154-.617-.616-1.08-1.079-1.388l-1.85-1.08c-.77-.462-1.233-1.079-1.387-1.85L24.512 9.483C22.971 3.933 18.038.387 12.489.387c-1.08 0-2.159.155-3.238.463C2.62 2.546-1.387 9.33.463 15.958l2.774 10.33c.155.77.155 1.695-.308 2.312L1.85 30.45c-.308.463-.463 1.233-.308 1.696l.616 2.004 30.217-8.017-.77-2.004zM3.084 32.3l-.155-.617v-.616l1.08-1.85c.616-1.08.77-2.313.462-3.546L1.696 15.34c-.771-2.774-.308-5.704 1.079-8.17 1.387-2.467 3.854-4.317 6.63-5.088.924-.308 1.85-.308 2.774-.308 4.934 0 9.25 3.238 10.638 8.017l2.775 10.329c.308 1.233 1.079 2.158 2.158 2.775l1.85 1.079c.154.154.308.308.308.462l.154.617L3.084 32.3zM10.637 33.38c.771 1.387 2.467 2.312 4.317 2.312 2.775 0 4.933-2.005 4.933-4.625l-9.25 2.312z"/>
            </g>
        </g>
    </symbol>
    <symbol xmlns="http://www.w3.org/2000/svg" width="34" height="34" viewBox="0 0 34 34" id="call">
        <g fill-rule="nonzero">
            <path opacity=".1" d="M28.4 30.64l2.38-2.38c.28-.28.28-.7 0-.98l-4.06-4.06c-.14-.14-.28-.28-.56-.28s-.42.14-.56.28l-1.68 1.68c-.56.56-1.26.84-1.96.84-.56 0-.98-.14-1.54-.42-.7-.42-1.54-.98-2.52-1.68.28 2.38 1.26 4.9 2.24 7 .28.14.56.42.84.56.98.7 2.1.98 3.22.98 1.68.14 3.08-.42 4.2-1.54z"/>
            <g>
                <path d="M27.7 22.24c-.42-.42-.98-.56-1.54-.56s-1.12.14-1.54.56l-1.68 1.68c-.28.28-.7.42-.98.42s-.56 0-.7-.14c-1.54-.98-4.48-2.8-6.58-4.9-2.1-2.1-4.06-5.04-4.9-6.58-.28-.56-.28-1.26.14-1.68l1.68-1.68c.84-.84.84-2.24 0-3.08L7.54 2.22c-.42-.42-.98-.56-1.54-.56s-1.12.14-1.54.56L2.08 4.6c-2.38 2.38-2.8 6.16-.84 9.1 2.38 3.5 5.74 8.12 8.26 10.64 2.52 2.52 7.14 5.88 10.64 8.26 1.26.84 2.66 1.26 4.06 1.26 1.82 0 3.64-.7 5.04-2.1l2.38-2.38c.84-.84.84-2.24 0-3.08l-3.92-4.06zm3.08 6.02l-2.38 2.38a5.607 5.607 0 0 1-4.06 1.68c-1.12 0-2.24-.28-3.22-.98-3.36-2.38-7.98-5.6-10.5-8.12-2.38-2.38-5.74-7-8.12-10.5-1.54-2.24-1.26-5.32.7-7.28l2.38-2.38c.14-.14.28-.28.56-.28s.42.14.56.28l4.06 4.06c.28.28.28.7 0 .98L9.08 9.78c-.98.98-1.12 2.38-.42 3.5.98 1.54 2.94 4.62 5.18 6.86 2.24 2.24 5.18 4.2 6.86 5.18.42.28.98.42 1.54.42.7 0 1.4-.28 1.96-.84l1.68-1.68c.14-.14.28-.28.56-.28s.42.14.56.28l4.06 4.06c0 .28 0 .7-.28.98z"/>
                <path d="M33.72.82V.68s0-.14-.14-.14V.4s-.14 0-.14-.14h-.14-8.68c-.42 0-.7.28-.7.7 0 .42.28.7.7.7h6.58l-14 12.74c-.28.28-.28.7 0 .98.14.14.28.28.56.28.14 0 .28 0 .42-.14L32.46 2.64V9.5c0 .42.28.7.7.7.42 0 .7-.28.7-.7L33.72.82z"/>
            </g>
        </g>
    </symbol>
    <symbol xmlns="http://www.w3.org/2000/svg" width="35" height="35" viewBox="0 0 35 35" id="plus">
        <g fill-rule="nonzero">
            <path opacity=".1" d="M30.35 1.7h-1.5v24c0 1.65-1.35 3-3 3h-24v1.5c0 1.65 1.35 3 3 3h25.5c1.65 0 3-1.35 3-3V4.7c0-1.65-1.35-3-3-3z"/>
            <g>
                <path d="M25.1 16.7h-6.75V9.95c0-.45-.3-.75-.75-.75s-.75.3-.75.75v6.75H10.1c-.45 0-.75.3-.75.75s.3.75.75.75h6.75v6.75c0 .45.3.75.75.75s.75-.3.75-.75V18.2h6.75c.45 0 .75-.3.75-.75 0-.3-.45-.75-.75-.75z"/>
                <path d="M30.2.2H4.85C2.3.2.2 2.3.2 4.85V30.2c0 2.55 2.1 4.65 4.65 4.65H30.2c2.55 0 4.65-2.1 4.65-4.65V4.85C34.85 2.3 32.75.2 30.2.2zm3.15 30c0 1.65-1.35 3-3 3H4.85c-1.65 0-3-1.35-3-3V4.7c0-1.65 1.35-3 3-3h25.5c1.65 0 3 1.35 3 3v25.5z"/>
            </g>
        </g>
    </symbol>
    <symbol xmlns="http://www.w3.org/2000/svg" width="43" height="32" viewBox="0 0 43 32" id="search">
        <g fill-rule="nonzero">
            <path opacity=".1" d="M27.233 7.8h-.366c1.833 1.467 3.116 3.85 3.116 6.417 0 4.4-3.483 8.066-7.883 8.25 1.467 1.1 3.117 1.833 5.133 1.833a8.216 8.216 0 0 0 8.25-8.25c0-4.583-3.85-8.25-8.25-8.25z"/>
            <g>
                <path d="M1.567 2.3h25.666c.55 0 .917-.367.917-.917s-.367-.916-.917-.916H1.567c-.55 0-.917.366-.917.916s.367.917.917.917zM27.233 29.8H1.567c-.55 0-.917.367-.917.917s.367.916.917.916h25.666c.55 0 .917-.366.917-.916s-.55-.917-.917-.917zM1.567 9.633H14.4c.55 0 .917-.366.917-.916S14.95 7.8 14.4 7.8H1.567c-.55 0-.917.367-.917.917s.367.916.917.916zM1.567 16.967h11c.55 0 .916-.367.916-.917s-.366-.917-.916-.917h-11c-.55 0-.917.367-.917.917s.367.917.917.917zM1.567 24.3H14.4c.55 0 .917-.367.917-.917s-.367-.916-.917-.916H1.567c-.55 0-.917.366-.917.916s.367.917.917.917zM42.45 30.167l-7.517-7.517c1.467-1.833 2.384-4.033 2.384-6.417 0-5.5-4.584-10.083-10.084-10.083S17.15 10.733 17.15 16.233s4.583 10.084 10.083 10.084c2.384 0 4.767-.917 6.417-2.384l7.517 7.517a.886.886 0 0 0 1.283 0 .886.886 0 0 0 0-1.283zM27.233 24.3a8.216 8.216 0 0 1-8.25-8.25 8.216 8.216 0 0 1 8.25-8.25 8.216 8.216 0 0 1 8.25 8.25c0 4.583-3.85 8.25-8.25 8.25z"/>
            </g>
        </g>
    </symbol>

</svg>
