<svg width="0" height="0" class="hidden">
    <symbol xmlns="http://www.w3.org/2000/svg" id="computer" viewBox="0 0 36.305 32.48">
        <path d="M31.23 0H5.075C2.623 0 0 1.335 0 5.075v17.536c0 3.74 2.623 5.075 5.075 5.075h9.681v3.232h-1.608a.781.781 0 0 0 0 1.562h10.306a.781.781 0 0 0 0-1.562h-1.905v-3.232h9.681c3.74 0 5.075-2.623 5.075-5.075V5.075C36.3 1.335 33.682 0 31.23 0zM19.987 30.918h-3.67v-3.232h3.67zm14.756-8.307a3.224 3.224 0 0 1-3.513 3.513H5.075a3.224 3.224 0 0 1-3.513-3.513v-1.116h33.181zm0-2.67H1.562V5.106a3.224 3.224 0 0 1 3.513-3.513H31.23a3.224 3.224 0 0 1 3.513 3.513z"/>
        <path d="M30.633 3.816a.739.739 0 0 0-1.072.161h.038l-5.712 8.083-2.682-3.678a.737.737 0 0 0-1.179-.04l-4.364 5.238-3.2-5.771a.743.743 0 0 0-1.309-.008L5.87 16.813a.84.84 0 0 0 .094 1.139.738.738 0 0 0 1.079-.1.818.818 0 0 0 .129-.231l4.594-7.905 3.063 5.569a.744.744 0 0 0 1.047.289.778.778 0 0 0 .185-.16l4.456-5.262 2.735 3.747a.871.871 0 0 0 .613.315.753.753 0 0 0 .6-.323l6.317-8.948a.838.838 0 0 0-.149-1.127z"/>
    </symbol>
    <symbol xmlns="http://www.w3.org/2000/svg" id="rocket" viewBox="0 0 31.114 30.933">
        <circle cx=".611" cy=".611" r=".611" transform="translate(0 29.71)"/>
        <circle cx=".61" cy=".61" r=".61" transform="translate(15.616 14.207)"/>
        <path d="M24.216 7.083a2.6 2.6 0 1 0 0 3.673 2.58 2.58 0 0 0 0-3.673zm-.863 2.81a1.377 1.377 0 1 1 0-1.947 1.378 1.378 0 0 1 0 1.946zM7.621 24.914a.61.61 0 0 0-.818.274l-.727 1.459a2.014 2.014 0 0 1-1.659 1.107l-.845.058a.362.362 0 0 1-.385-.385l.058-.845a2.014 2.014 0 0 1 1.107-1.659l1.459-.727a.61.61 0 1 0-.544-1.092l-1.459.727a3.238 3.238 0 0 0-1.781 2.668l-.058.845a1.582 1.582 0 0 0 1.578 1.69h.108l.845-.058a3.238 3.238 0 0 0 2.668-1.781l.727-1.459a.61.61 0 0 0-.274-.822z"/>
        <path d="M30.693.408a1.413 1.413 0 0 0-1.081-.4l-.568.036a18.408 18.408 0 0 0-13.079 6.741l-1.337 1.646-3.5-.1h-.018a10.322 10.322 0 0 0-7.347 3.043l-3.58 3.582a.61.61 0 0 0 .4 1.041l7.587.39-.309.381a.61.61 0 0 0-.062.676q.178.328.373.645l-1.8 2.136a.61.61 0 0 0-.085.654 7.944 7.944 0 0 0 3.814 3.814.61.61 0 0 0 .645-.078c.388-.314.834-.687 1.267-1.048.308-.257.623-.52.918-.762q.264.159.534.307a.61.61 0 0 0 .666-.054l.416-.323.391 7.619a.61.61 0 0 0 1.041.4l3.584-3.584a10.322 10.322 0 0 0 3.043-7.347V16.48l1.414-1.1a18.335 18.335 0 0 0 7.08-13.6l.015-.3a1.414 1.414 0 0 0-.422-1.072zm-28.68 14.44l2.614-2.614a9.11 9.11 0 0 1 6.475-2.686l2.557.075-4.54 5.59zm9.216 7.782c-.318.266-.645.538-.948.787a6.7 6.7 0 0 1-2.718-2.716l1.32-1.563a14.145 14.145 0 0 0 1.3 1.515 14.145 14.145 0 0 0 1.68 1.444zm10.154-2.808a9.11 9.11 0 0 1-2.686 6.486l-2.614 2.612-.365-7.1 5.664-4.4v2.4zm8.5-18.1a17.116 17.116 0 0 1-6.61 12.7l-9.569 7.425a12.919 12.919 0 0 1-2.21-1.631l3.226-3.226a.61.61 0 0 0-.863-.863l-3.223 3.223a12.917 12.917 0 0 1-1.564-2.133l7.846-9.659a17.184 17.184 0 0 1 12.209-6.3l.568-.036a.192.192 0 0 1 .2.2z"/>
    </symbol>
    <symbol xmlns="http://www.w3.org/2000/svg" id="recruitment" viewBox="0 0 38.76 38.758">
        <path d="M34.894 20.325a3.167 3.167 0 0 0 .543-1.776v-.607A3.184 3.184 0 0 0 30 15.686a11.2 11.2 0 0 0-21.246 0 3.184 3.184 0 0 0-5.433 2.255v.607a3.167 3.167 0 0 0 .543 1.776A4.879 4.879 0 0 0 0 25.091v1.524a.757.757 0 0 0 .757.757h3.937a.757.757 0 0 0 0-1.514h-3.18v-.767a3.361 3.361 0 0 1 3.357-3.357h3.583a11.141 11.141 0 0 0 1.487 3.545L1.3 33.917a2.837 2.837 0 0 0 4.012 4.012l4.762-4.762a.757.757 0 0 0-1.071-1.071l-4.762 4.762a1.323 1.323 0 1 1-1.871-1.871l8.479-8.479a11.2 11.2 0 0 0 19.452-4.774h3.583a3.361 3.361 0 0 1 3.357 3.357v.767h-7.112a.757.757 0 0 0 0 1.514H38a.757.757 0 0 0 .757-.757v-1.524a4.879 4.879 0 0 0-3.863-4.766zM8.18 18.549a1.672 1.672 0 0 1-3.343 0v-.607a1.672 1.672 0 1 1 3.343 0zm11.2 10.39a9.69 9.69 0 1 1 9.69-9.69 9.7 9.7 0 0 1-9.69 9.69zm14.542-10.39a1.672 1.672 0 0 1-3.343 0v-.607a1.672 1.672 0 1 1 3.343 0z"/>
        <path d="M19.38 11.073a8.172 8.172 0 0 0-5.607 14.121.756.756 0 0 0 .088.082 8.16 8.16 0 0 0 11.038 0 .749.749 0 0 0 .088-.082 8.172 8.172 0 0 0-5.607-14.121zm0 14.838a6.629 6.629 0 0 1-4.126-1.435 4.672 4.672 0 0 1 8.251 0 6.629 6.629 0 0 1-4.125 1.435zm-1.6-7.024v-.589a1.6 1.6 0 0 1 3.191 0v.588a1.6 1.6 0 1 1-3.191 0zm6.828 4.48a6.132 6.132 0 0 0-2.9-2.432 3.1 3.1 0 0 0 .773-2.048v-.589a3.11 3.11 0 0 0-6.219 0v.588a3.1 3.1 0 0 0 .773 2.048 6.132 6.132 0 0 0-2.9 2.432 6.662 6.662 0 1 1 10.466 0zm-12.506 6.704a.757.757 0 1 0 .222.535.763.763 0 0 0-.222-.535zM19.395 0a.757.757 0 0 0-.757.757v2.576a.757.757 0 1 0 1.514 0V.757A.757.757 0 0 0 19.395 0zm.535 5.294a.756.756 0 1 0 .222.535.761.761 0 0 0-.222-.535zm5.883-2.324a.757.757 0 0 0-1.071 0l-1.331 1.331a.757.757 0 0 0 1.071 1.071l1.331-1.331a.757.757 0 0 0 0-1.071zM15.361 4.309l-1.343-1.343a.757.757 0 1 0-1.071 1.071L14.29 5.38a.757.757 0 1 0 1.071-1.071z"/>
    </symbol>
    <symbol xmlns="http://www.w3.org/2000/svg" id="group" viewBox="0 0 45 28.796">
        <path d="M30.386 16.222l-3.9-1.7a.75.75 0 0 1-.453-.685v-1.052a5.549 5.549 0 0 0 2.15-4.373V6.929a1.363 1.363 0 0 0 .717-1.194v-.144A5.646 5.646 0 0 0 23.213 0H21.78a5.646 5.646 0 0 0-5.687 5.591v1.3a1.374 1.374 0 0 0 .535 1.108 1.311 1.311 0 0 0 .182.116v.291a5.548 5.548 0 0 0 2.15 4.373v1.052a.75.75 0 0 1-.453.685l-3.9 1.7a3.478 3.478 0 0 0-2.1 3.178v8.737a.671.671 0 0 0 1.341 0v-8.737a2.125 2.125 0 0 1 .014-.227l1.8 1.765a1.433 1.433 0 0 1 .433 1.029v6.17a.671.671 0 0 0 1.341 0v-6.17A2.731 2.731 0 0 0 16.61 20l-2.14-2.1a2.19 2.19 0 0 1 .687-.475l3.83-1.674 2.84 2.793v9.591a.671.671 0 0 0 1.341 0v-9.59l2.841-2.793 3.83 1.674a2.189 2.189 0 0 1 .687.475l-2.14 2.1a2.731 2.731 0 0 0-.826 1.961v6.17a.671.671 0 0 0 1.341 0v-6.17a1.433 1.433 0 0 1 .433-1.029l1.8-1.765a2.117 2.117 0 0 1 .014.227v8.737a.671.671 0 0 0 1.341 0v-8.737a3.479 3.479 0 0 0-2.103-3.173zM22.5 17.34l-2.492-2.451a2.038 2.038 0 0 0 .3-1.056v-.268a5.772 5.772 0 0 0 4.392 0v.268a2.038 2.038 0 0 0 .3 1.056zm0-4.659a4.314 4.314 0 0 1-4.346-4.273v-.3a3.972 3.972 0 0 0 1.218-.777.651.651 0 0 0 .038-.931.679.679 0 0 0-.947-.037 2.417 2.417 0 0 1-1 .584h-.018a.132.132 0 0 1-.011-.06v-1.3a4.315 4.315 0 0 1 4.346-4.273h1.433a4.315 4.315 0 0 1 4.346 4.273v.144a.042.042 0 0 1-.03.043c-4.015.78-6.028-.69-6.708-1.358a.679.679 0 0 0-.948 0 .651.651 0 0 0 0 .932c2.082 2.047 5.12 2.084 6.97 1.865v1.191a4.315 4.315 0 0 1-4.343 4.278zm-10.41-.006v-1.406a4.852 4.852 0 0 0-2.279-4.095 2.728 2.728 0 0 0 .129-.825 2.821 2.821 0 0 0-5.64 0 2.7 2.7 0 0 0 .129.825 4.852 4.852 0 0 0-2.278 4.095v1.406a4.847 4.847 0 0 0 2.15 4.011v1.446a.743.743 0 0 1-.422.669l-2.32 1.137A2.746 2.746 0 0 0 0 22.413v5.726a.664.664 0 0 0 .67.658.664.664 0 0 0 .67-.658v-5.441l1.092 1.071a1.428 1.428 0 0 1 .433 1.026v3.344a.671.671 0 0 0 1.341 0v-3.344a2.722 2.722 0 0 0-.826-1.956l-1.52-1.491-.023-.02a1.5 1.5 0 0 1 .32-.212l2.319-1.137a2.142 2.142 0 0 0 .332-.2l1.639 1.608v6.756a.671.671 0 0 0 1.341 0v-6.756l1.639-1.608a2.133 2.133 0 0 0 .332.2l.639.314a.678.678 0 0 0 .9-.294.652.652 0 0 0-.3-.882l-.639-.314a.743.743 0 0 1-.422-.669v-1.446a4.847 4.847 0 0 0 2.153-4.013zM7.12 4.898A1.467 1.467 0 0 1 8.6 6.349a1.446 1.446 0 0 1-.023.259 5.062 5.062 0 0 0-2.91 0 1.434 1.434 0 0 1-.025-.258A1.467 1.467 0 0 1 7.12 4.898zm0 2.812a3.6 3.6 0 0 1 3.629 3.56v.238a4.25 4.25 0 0 1-4.526-1.336.679.679 0 0 0-1.01-.07 4.4 4.4 0 0 1-1.719 1.077A3.6 3.6 0 0 1 7.12 7.71zm0 12.47l-1.549-1.52a2.045 2.045 0 0 0 .07-.528v-.8a5.072 5.072 0 0 0 2.959 0v.8a2.044 2.044 0 0 0 .07.528zm0-3.945a3.6 3.6 0 0 1-3.629-3.56v-.136a5.42 5.42 0 0 0 2.154-1.053 6.044 6.044 0 0 0 1.243.888 5.414 5.414 0 0 0 2.562.649 5.721 5.721 0 0 0 1.293-.152 3.6 3.6 0 0 1-3.623 3.364zm36.321 2.098l-3.752-1.876a.759.759 0 0 1-.422-.682v-.95a4.243 4.243 0 0 0 1.433-3.18v-.763h.051a.67.67 0 0 0 .67-.67V8.779a4.258 4.258 0 0 0-4.253-4.253h-1.433a4.258 4.258 0 0 0-4.253 4.253v1.433a.67.67 0 0 0 .67.67h.046v.764a4.244 4.244 0 0 0 1.433 3.18v.95a.758.758 0 0 1-.422.682.67.67 0 1 0 .6 1.2 2.134 2.134 0 0 0 .332-.208l1.639 1.639v9.037a.67.67 0 1 0 1.341 0v-9.038l1.639-1.639a2.126 2.126 0 0 0 .332.208l3.631 1.815-1.1 1.1a2.8 2.8 0 0 0-.826 1.994v5.56a.67.67 0 1 0 1.341 0v-5.559a1.47 1.47 0 0 1 .433-1.046l1.043-1.043a1.494 1.494 0 0 1 .049.378v7.27a.67.67 0 1 0 1.341 0v-7.271a2.8 2.8 0 0 0-1.563-2.522zm-10.623-8.93v-.625a2.916 2.916 0 0 1 2.913-2.913h1.433a2.916 2.916 0 0 1 2.913 2.913v.745a10.254 10.254 0 0 1-4.69-1.3.67.67 0 0 0-.846.084 4.391 4.391 0 0 1-1.723 1.095zm3.629 8.459l-1.549-1.549a2.123 2.123 0 0 0 .07-.538v-.143a4.25 4.25 0 0 0 2.959 0v.143a2.118 2.118 0 0 0 .07.538zm0-3.305a2.916 2.916 0 0 1-2.913-2.913v-1.081a5.673 5.673 0 0 0 1.573-.96 11.912 11.912 0 0 0 4.252 1.209v.832a2.916 2.916 0 0 1-2.908 2.912z"/>
    </symbol>
</svg>
