<svg xmlns="http://www.w3.org/2000/svg" width="20" height="21" viewBox="0 0 20 21">
    <path fill="#FFF" fill-rule="nonzero" d="M13.692 10.92H.42c-.252 0-.42-.168-.42-.42s.168-.42.42-.42h13.272l-3.444-3.444a.406.406 0 0 1 0-.588.406.406 0 0 1 .588 0l4.2 4.2c.084.084.084.168.084.336s0 .252-.084.336l-4.2 4.2a.406.406 0 0 1-.588 0 .406.406 0 0 1 0-.588l3.444-3.612zM18.144 0h-9.24c-.672 0-1.26.588-1.26 1.26v3.36c0 .252.168.42.42.42s.42-.168.42-.42V1.26c0-.252.168-.42.42-.42h9.24c.252 0 .42.168.42.42v18.48c0 .252-.168.42-.42.42h-9.24c-.252 0-.42-.168-.42-.42v-3.36c0-.252-.168-.42-.42-.42s-.42.168-.42.42v3.36c0 .672.588 1.26 1.26 1.26h9.24c.672 0 1.26-.588 1.26-1.26V1.26c0-.672-.588-1.26-1.26-1.26z"/>
</svg>
